<svg width="960" height="720" xmlns="http://www.w3.org/2000/svg" xmlns:xlink="http://www.w3.org/1999/xlink" overflow="hidden"><defs><clipPath id="clip0"><rect x="0" y="0" width="960" height="720"/></clipPath><linearGradient x1="480" y1="0" x2="480" y2="720" gradientUnits="userSpaceOnUse" spreadMethod="reflect" id="fill1"><stop offset="0" stop-color="#EBEAEA"/><stop offset="0.5" stop-color="#E4E3E3"/><stop offset="1" stop-color="#BCBBBB"/></linearGradient></defs><g clip-path="url(#clip0)"><rect x="0" y="0" width="960" height="720" fill="url(#fill1)"/><rect x="0" y="0" width="960" height="151" fill="#F1CEB0"/><path d="M0 148 960 148" stroke="#5C2E4A" stroke-width="8" stroke-miterlimit="8" fill="none" fill-rule="evenodd"/><path d="M0 0 960 0 960 720 0 720ZM7.66824 7.66824 7.66824 712.332 952.332 712.332 952.332 7.66824Z" fill="#5C2E4A" fill-rule="evenodd"/><path d="M0 0 52 0C80.7188-1.20948e-14 104 21.2665 104 47.5 104 73.7335 80.7188 95 52 95L0 95Z" fill="#5C2E4A" fill-rule="evenodd"/><text fill="#F1CEB0" font-family="Comfortaa,Comfortaa_MSFontService,sans-serif" font-weight="700" font-size="64" transform="translate(5.5999 73)">B3</text><text fill="#0D0D0D" font-family="Comfortaa,Comfortaa_MSFontService,sans-serif" font-weight="700" font-size="32" transform="translate(115.972 42)">Initializing Projects &amp; Running Scripts</text><text fill="#0D0D0D" font-family="Comfortaa,Comfortaa_MSFontService,sans-serif" font-weight="400" font-size="32" transform="translate(754.472 42)">–</text><text fill="#0D0D0D" font-family="Comfortaa,Comfortaa_MSFontService,sans-serif" font-weight="400" font-size="32" transform="translate(776.305 42)">projects</text><text fill="#0D0D0D" font-family="Comfortaa,Comfortaa_MSFontService,sans-serif" font-weight="400" font-size="32" transform="translate(115.972 81)">can be loaded to run scripts interactively</text><text fill="#0D0D0D" font-family="Comfortaa,Comfortaa_MSFontService,sans-serif" font-weight="400" font-size="32" transform="translate(115.972 119)">(e.g. in a</text><text fill="#0D0D0D" font-family="Comfortaa,Comfortaa_MSFontService,sans-serif" font-weight="400" font-size="32" transform="translate(259.638 119)">Jupyter</text><text fill="#0D0D0D" font-family="Comfortaa,Comfortaa_MSFontService,sans-serif" font-weight="400" font-size="32" transform="translate(397.638 119)">Notebook)</text><path d="M17.5001 552.664C17.5001 543.185 25.1844 535.5 34.6635 535.5L920.337 535.5C929.816 535.5 937.5 543.185 937.5 552.664L937.5 578.336C937.5 587.816 929.816 595.5 920.337 595.5L34.6635 595.5C25.1844 595.5 17.5001 587.816 17.5001 578.336Z" stroke="#5C4357" stroke-width="1.33333" stroke-miterlimit="8" fill="#E6CDDC" fill-rule="evenodd"/><path d="M17.5001 207.679C17.5001 197.639 25.6389 189.5 35.6787 189.5L919.321 189.5C929.361 189.5 937.5 197.639 937.5 207.679L937.5 266.321C937.5 276.361 929.361 284.5 919.321 284.5L35.6787 284.5C25.6389 284.5 17.5001 276.361 17.5001 266.321Z" stroke="#5C4357" stroke-width="1.33333" stroke-miterlimit="8" fill="#E6CDDC" fill-rule="evenodd"/><path d="M17.5001 315.773C17.5001 305.129 26.129 296.5 36.7734 296.5L918.227 296.5C928.871 296.5 937.5 305.129 937.5 315.773L937.5 416.227C937.5 426.871 928.871 435.5 918.227 435.5L36.7734 435.5C26.129 435.5 17.5001 426.871 17.5001 416.227Z" stroke="#5C4357" stroke-width="1.33333" stroke-miterlimit="8" fill="#E6CDDC" fill-rule="evenodd"/><text fill="#0D0D0D" font-family="Consolas,Consolas_MSFontService,sans-serif" font-weight="400" font-size="31" transform="translate(32.2963 229)">import</text><text fill="#0D0D0D" font-family="Consolas,Consolas_MSFontService,sans-serif" font-weight="400" font-size="31" transform="translate(150.13 229)">omnifig</text><text fill="#0D0D0D" font-family="Consolas,Consolas_MSFontService,sans-serif" font-weight="400" font-size="31" transform="translate(284.796 229)">as fig</text><text fill="#0D0D0D" font-family="Consolas,Consolas_MSFontService,sans-serif" font-weight="400" font-size="31" transform="translate(32.2963 266)">fig.</text><text fill="#3B3838" font-family="Consolas,Consolas_MSFontService,sans-serif" font-weight="400" font-size="31" transform="translate(99.6296 266)">initialize</text><text fill="#0D0D0D" font-family="Consolas,Consolas_MSFontService,sans-serif" font-weight="400" font-size="31" transform="translate(267.963 266)">()</text><text fill="#CC1800" font-family="Consolas,Consolas_MSFontService,sans-serif" font-weight="400" font-size="31" transform="translate(32.2963 336)">cfg</text><text fill="#0D0D0D" font-family="Consolas,Consolas_MSFontService,sans-serif" font-weight="400" font-size="31" transform="translate(99.6296 336)">=</text><text fill="#0D0D0D" font-family="Consolas,Consolas_MSFontService,sans-serif" font-weight="400" font-size="31" transform="translate(133.296 336)">fig.</text><text fill="#3B3838" font-family="Consolas,Consolas_MSFontService,sans-serif" font-weight="400" font-size="31" transform="translate(200.63 336)">create_config</text><text fill="#0D0D0D" font-family="Consolas,Consolas_MSFontService,sans-serif" font-weight="400" font-size="31" transform="translate(419.463 336)">(‘</text><text fill="#A41A27" font-family="Consolas,Consolas_MSFontService,sans-serif" font-weight="400" font-size="31" transform="translate(453.13 336)">m/</text><text fill="#A41A27" font-family="Consolas,Consolas_MSFontService,sans-serif" font-weight="400" font-size="31" transform="translate(486.796 336)">cnn</text><text fill="#0D0D0D" font-family="Consolas,Consolas_MSFontService,sans-serif" font-weight="400" font-size="31" transform="translate(537.296 336)">’, ‘</text><text fill="#A41A27" font-family="Consolas,Consolas_MSFontService,sans-serif" font-weight="400" font-size="31" transform="translate(604.63 336)">d/</text><text fill="#A41A27" font-family="Consolas,Consolas_MSFontService,sans-serif" font-weight="400" font-size="31" transform="translate(638.296 336)">mnist</text><text fill="#0D0D0D" font-family="Consolas,Consolas_MSFontService,sans-serif" font-weight="400" font-size="31" transform="translate(722.463 336)">’,</text><text fill="#5C2E4A" font-family="Consolas,Consolas_MSFontService,sans-serif" font-weight="400" font-size="31" transform="translate(772.963 336)">lr</text><text fill="#5C2E4A" font-family="Consolas,Consolas_MSFontService,sans-serif" font-weight="400" font-size="31" transform="translate(806.63 336)">=0.001</text><text fill="#0D0D0D" font-family="Consolas,Consolas_MSFontService,sans-serif" font-weight="400" font-size="31" transform="translate(907.63 336)">)</text><text fill="#0D0D0D" font-family="Consolas,Consolas_MSFontService,sans-serif" font-weight="400" font-size="31" transform="translate(32.2963 373)">out1 =</text><text fill="#0D0D0D" font-family="Consolas,Consolas_MSFontService,sans-serif" font-weight="400" font-size="31" transform="translate(150.13 373)">fig.</text><text fill="#3B3838" font-family="Consolas,Consolas_MSFontService,sans-serif" font-weight="400" font-size="31" transform="translate(217.463 373)">run_script</text><text fill="#0D0D0D" font-family="Consolas,Consolas_MSFontService,sans-serif" font-weight="400" font-size="31" transform="translate(385.796 373)">(‘</text><text fill="#579003" font-family="Consolas,Consolas_MSFontService,sans-serif" font-weight="400" font-size="31" transform="translate(419.463 373)">train</text><text fill="#0D0D0D" font-family="Consolas,Consolas_MSFontService,sans-serif" font-weight="400" font-size="31" transform="translate(503.63 373)">’,</text><text fill="#CC1800" font-family="Consolas,Consolas_MSFontService,sans-serif" font-weight="400" font-size="31" transform="translate(554.13 373)">cfg</text><text fill="#0D0D0D" font-family="Consolas,Consolas_MSFontService,sans-serif" font-weight="400" font-size="31" transform="translate(604.63 373)">)</text><text fill="#CC1800" font-family="Consolas,Consolas_MSFontService,sans-serif" font-weight="400" font-size="31" transform="translate(32.2963 410)">cfg</text><text fill="#0D0D0D" font-family="Consolas,Consolas_MSFontService,sans-serif" font-weight="400" font-size="31" transform="translate(82.7963 410)">.push</text><text fill="#0D0D0D" font-family="Consolas,Consolas_MSFontService,sans-serif" font-weight="400" font-size="31" transform="translate(166.963 410)">(</text><text fill="#5C2E4A" font-family="Consolas,Consolas_MSFontService,sans-serif" font-weight="400" font-size="31" transform="translate(183.796 410)">‘</text><text fill="#5C2E4A" font-family="Consolas,Consolas_MSFontService,sans-serif" font-weight="400" font-size="31" transform="translate(200.63 410)">model.nonlin</text><text fill="#5C2E4A" font-family="Consolas,Consolas_MSFontService,sans-serif" font-weight="400" font-size="31" transform="translate(402.63 410)">’, ‘</text><text fill="#5C2E4A" font-family="Consolas,Consolas_MSFontService,sans-serif" font-weight="400" font-size="31" transform="translate(469.963 410)">elu</text><text fill="#5C2E4A" font-family="Consolas,Consolas_MSFontService,sans-serif" font-weight="400" font-size="31" transform="translate(520.463 410)">’</text><text fill="#0D0D0D" font-family="Consolas,Consolas_MSFontService,sans-serif" font-weight="400" font-size="31" transform="translate(537.296 410)">)</text><text fill="#0D0D0D" font-family="Consolas,Consolas_MSFontService,sans-serif" font-weight="400" font-size="31" transform="translate(32.2962 574)">out2 =</text><text fill="#0D0D0D" font-family="Consolas,Consolas_MSFontService,sans-serif" font-weight="400" font-size="31" transform="translate(150.13 574)">fig.</text><text fill="#3B3838" font-family="Consolas,Consolas_MSFontService,sans-serif" font-weight="400" font-size="31" transform="translate(217.463 574)">quick_run</text><text fill="#0D0D0D" font-family="Consolas,Consolas_MSFontService,sans-serif" font-weight="400" font-size="31" transform="translate(368.963 574)">(‘</text><text fill="#579003" font-family="Consolas,Consolas_MSFontService,sans-serif" font-weight="400" font-size="31" transform="translate(402.63 574)">eval</text><text fill="#0D0D0D" font-family="Consolas,Consolas_MSFontService,sans-serif" font-weight="400" font-size="31" transform="translate(469.963 574)">’, ‘</text><text fill="#A41A27" font-family="Consolas,Consolas_MSFontService,sans-serif" font-weight="400" font-size="31" transform="translate(537.296 574)">m/</text><text fill="#A41A27" font-family="Consolas,Consolas_MSFontService,sans-serif" font-weight="400" font-size="31" transform="translate(570.963 574)">mnist</text><text fill="#0D0D0D" font-family="Consolas,Consolas_MSFontService,sans-serif" font-weight="400" font-size="31" transform="translate(655.13 574)">’,</text><text fill="#5C2E4A" font-family="Consolas,Consolas_MSFontService,sans-serif" font-weight="400" font-size="31" transform="translate(705.63 574)">load=‘ckpt5’</text><text fill="#0D0D0D" font-family="Consolas,Consolas_MSFontService,sans-serif" font-weight="400" font-size="31" transform="translate(907.63 574)">)</text><path d="M86.5001 626.167C86.5001 618.619 92.6189 612.5 100.167 612.5L227.833 612.5 238.08 585.315 439.833 612.5 920.833 612.5C928.381 612.5 934.5 618.619 934.5 626.167L934.5 626.167 934.5 626.167 934.5 646.667 934.5 680.833C934.5 688.381 928.381 694.5 920.833 694.5L439.833 694.5 227.833 694.5 227.833 694.5 100.167 694.5C92.6189 694.5 86.5001 688.381 86.5001 680.833L86.5001 646.667 86.5001 626.167 86.5001 626.167Z" stroke="#77101A" stroke-width="1.33333" stroke-miterlimit="8" fill="#A41A27" fill-rule="evenodd"/><text fill="#FFFFFF" font-family="Comfortaa,Comfortaa_MSFontService,sans-serif" font-weight="400" font-size="27" transform="translate(105.313 646)">If you don’t need the config object, you can use “</text><text fill="#FFFFFF" font-family="Consolas,Consolas_MSFontService,sans-serif" font-weight="400" font-size="27" transform="translate(775.313 646)">quick_run</text><text fill="#FFFFFF" font-family="Comfortaa,Comfortaa_MSFontService,sans-serif" font-weight="400" font-size="27" transform="translate(907.313 646)">”</text><text fill="#FFFFFF" font-family="Comfortaa,Comfortaa_MSFontService,sans-serif" font-weight="400" font-size="27" transform="translate(181.726 678)">to create the config and run a script in one line</text><path d="M599.5 408.167C599.5 397.858 607.858 389.5 618.167 389.5L802.5 389.5 776.49 351.782 889.5 389.5 928.833 389.5C939.143 389.5 947.5 397.858 947.5 408.167L947.5 408.167 947.5 408.167 947.5 436.167 947.5 482.833C947.5 493.143 939.143 501.5 928.833 501.5L889.5 501.5 802.5 501.5 802.5 501.5 618.167 501.5C607.858 501.5 599.5 493.143 599.5 482.833L599.5 436.167 599.5 408.167 599.5 408.167Z" stroke="#77101A" stroke-width="1.33333" stroke-miterlimit="8" fill="#A41A27" fill-rule="evenodd"/><text fill="#FFFFFF" font-family="Comfortaa,Comfortaa_MSFontService,sans-serif" font-weight="400" font-size="27" transform="translate(620.198 422)">You can compose any</text><text fill="#FFFFFF" font-family="Comfortaa,Comfortaa_MSFontService,sans-serif" font-weight="400" font-size="27" transform="translate(622.452 454)">registered config files</text><text fill="#FFFFFF" font-family="Comfortaa,Comfortaa_MSFontService,sans-serif" font-weight="400" font-size="27" transform="translate(619.365 486)">with any keyword</text><text fill="#FFFFFF" font-family="Comfortaa,Comfortaa_MSFontService,sans-serif" font-weight="400" font-size="27" transform="translate(864.532 486)">args</text><path d="M417.5 188.167C417.5 179.514 424.514 172.5 433.167 172.5L505.167 172.5 505.167 172.5 636.667 172.5 927.833 172.5C936.486 172.5 943.5 179.514 943.5 188.167L943.5 227.333 943.5 227.333 943.5 250.833 943.5 250.833C943.5 259.486 936.486 266.5 927.833 266.5L636.667 266.5 505.167 266.5 505.167 266.5 433.167 266.5C424.514 266.5 417.5 259.486 417.5 250.833L417.5 250.833 365.989 258.818 417.5 227.333Z" stroke="#77101A" stroke-width="1.33333" stroke-miterlimit="8" fill="#A41A27" fill-rule="evenodd"/><text fill="#FFFFFF" font-family="Comfortaa,Comfortaa_MSFontService,sans-serif" font-weight="400" font-size="27" transform="translate(432.626 212)">Initializing the project will import all</text><text fill="#FFFFFF" font-family="Comfortaa,Comfortaa_MSFontService,sans-serif" font-weight="400" font-size="27" transform="translate(443.293 244)">specified modules and config files</text><path d="M825.5 258.667C825.5 255.261 828.261 252.5 831.667 252.5L931.333 252.5C934.739 252.5 937.5 255.261 937.5 258.667L937.5 283.333C937.5 286.739 934.739 289.5 931.333 289.5L831.667 289.5C828.261 289.5 825.5 286.739 825.5 283.333Z" stroke="#805E79" stroke-width="1.33333" stroke-miterlimit="8" fill="#E7DEE5" fill-rule="evenodd"/><text fill="#5C2E4A" font-family="Comfortaa,Comfortaa_MSFontService,sans-serif" font-weight="400" font-size="24" transform="translate(843.794 280)">see B1</text><path d="M66.5001 450C66.5001 441.992 72.9921 435.5 81.0004 435.5L121.833 435.5 115.59 416.908 204.833 435.5 384 435.5C392.008 435.5 398.5 441.992 398.5 450L398.5 450 398.5 450 398.5 471.75 398.5 508C398.5 516.008 392.008 522.5 384 522.5L204.833 522.5 121.833 522.5 121.833 522.5 81.0004 522.5C72.9921 522.5 66.5001 516.008 66.5001 508L66.5001 471.75 66.5001 450 66.5001 450Z" stroke="#77101A" stroke-width="1.33333" stroke-miterlimit="8" fill="#A41A27" fill-rule="evenodd"/><text fill="#FFFFFF" font-family="Comfortaa,Comfortaa_MSFontService,sans-serif" font-weight="400" font-size="27" transform="translate(86.8087 471)">Config object can be</text><text fill="#FFFFFF" font-family="Comfortaa,Comfortaa_MSFontService,sans-serif" font-weight="400" font-size="27" transform="translate(101.562 503)">modified if needed</text><path d="M245.5 515.5C245.5 512.186 248.186 509.5 251.5 509.5L351.5 509.5C354.814 509.5 357.5 512.186 357.5 515.5L357.5 539.5C357.5 542.814 354.814 545.5 351.5 545.5L251.5 545.5C248.186 545.5 245.5 542.814 245.5 539.5Z" stroke="#805E79" stroke-width="1.33333" stroke-miterlimit="8" fill="#E7DEE5" fill-rule="evenodd"/><text fill="#5C2E4A" font-family="Comfortaa,Comfortaa_MSFontService,sans-serif" font-weight="400" font-size="24" transform="translate(260.771 536)">see B5</text><path d="M782.5 499.667C782.5 496.261 785.261 493.5 788.667 493.5L888.333 493.5C891.739 493.5 894.5 496.261 894.5 499.667L894.5 524.333C894.5 527.739 891.739 530.5 888.333 530.5L788.667 530.5C785.261 530.5 782.5 527.739 782.5 524.333Z" stroke="#805E79" stroke-width="1.33333" stroke-miterlimit="8" fill="#E7DEE5" fill-rule="evenodd"/><text fill="#5C2E4A" font-family="Comfortaa,Comfortaa_MSFontService,sans-serif" font-weight="400" font-size="24" transform="translate(797.728 521)">see B4</text></g></svg>