<svg width="960" height="720" xmlns="http://www.w3.org/2000/svg" xmlns:xlink="http://www.w3.org/1999/xlink" overflow="hidden"><defs><clipPath id="clip0"><rect x="0" y="0" width="960" height="720"/></clipPath><linearGradient x1="480" y1="0" x2="480" y2="720" gradientUnits="userSpaceOnUse" spreadMethod="reflect" id="fill1"><stop offset="0" stop-color="#EBEAEA"/><stop offset="0.5" stop-color="#E4E3E3"/><stop offset="1" stop-color="#BCBBBB"/></linearGradient></defs><g clip-path="url(#clip0)"><rect x="0" y="0" width="960" height="720" fill="url(#fill1)"/><path d="M358.5 535.706C358.5 528.965 363.965 523.5 370.706 523.5L929.294 523.5C936.035 523.5 941.5 528.965 941.5 535.706L941.5 639.294C941.5 646.035 936.035 651.5 929.294 651.5L370.706 651.5C363.965 651.5 358.5 646.035 358.5 639.294Z" stroke="#5C4357" stroke-width="1.33333" stroke-miterlimit="8" fill="#E6CDDC" fill-rule="evenodd"/><text fill="#0D0D0D" font-family="Consolas,Consolas_MSFontService,sans-serif" font-weight="400" font-size="24" transform="translate(366.209 550)">fig.</text><text fill="#3B3838" font-family="Consolas,Consolas_MSFontService,sans-serif" font-weight="400" font-size="24" transform="translate(418.876 550)">pull</text><text fill="#0D0D0D" font-family="Consolas,Consolas_MSFontService,sans-serif" font-weight="400" font-size="24" transform="translate(471.543 550)">(‘</text><text fill="#601212" font-family="Consolas,Consolas_MSFontService,sans-serif" font-weight="400" font-size="24" transform="translate(497.876 550)">model.inp</text><text fill="#0D0D0D" font-family="Consolas,Consolas_MSFontService,sans-serif" font-weight="400" font-size="24" transform="translate(616.376 550)">’) # [28, 28]</text><text fill="#0D0D0D" font-family="Consolas,Consolas_MSFontService,sans-serif" font-weight="400" font-size="24" transform="translate(366.209 578)">fig.</text><text fill="#3B3838" font-family="Consolas,Consolas_MSFontService,sans-serif" font-weight="400" font-size="24" transform="translate(418.876 578)">pull</text><text fill="#0D0D0D" font-family="Consolas,Consolas_MSFontService,sans-serif" font-weight="400" font-size="24" transform="translate(471.543 578)">(‘</text><text fill="#601212" font-family="Consolas,Consolas_MSFontService,sans-serif" font-weight="400" font-size="24" transform="translate(497.876 578)">info</text><text fill="#0D0D0D" font-family="Consolas,Consolas_MSFontService,sans-serif" font-weight="400" font-size="24" transform="translate(550.543 578)">’) # {‘name’: ‘</text><text fill="#0D0D0D" font-family="Consolas,Consolas_MSFontService,sans-serif" font-weight="400" font-size="24" transform="translate(748.043 578)">nn</text><text fill="#0D0D0D" font-family="Consolas,Consolas_MSFontService,sans-serif" font-weight="400" font-size="24" transform="translate(774.376 578)">’,‘dim’: 10}</text><text fill="#0D0D0D" font-family="Consolas,Consolas_MSFontService,sans-serif" font-weight="400" font-size="24" transform="translate(366.209 607)">fig.</text><text fill="#3B3838" font-family="Consolas,Consolas_MSFontService,sans-serif" font-weight="400" font-size="24" transform="translate(418.876 607)">pulls</text><text fill="#0D0D0D" font-family="Consolas,Consolas_MSFontService,sans-serif" font-weight="400" font-size="24" transform="translate(484.709 607)">(‘</text><text fill="#601212" font-family="Consolas,Consolas_MSFontService,sans-serif" font-weight="400" font-size="24" transform="translate(511.043 607)">batchsize</text><text fill="#0D0D0D" font-family="Consolas,Consolas_MSFontService,sans-serif" font-weight="400" font-size="24" transform="translate(629.543 607)">’, ‘</text><text fill="#601212" font-family="Consolas,Consolas_MSFontService,sans-serif" font-weight="400" font-size="24" transform="translate(682.209 607)">bs</text><text fill="#0D0D0D" font-family="Consolas,Consolas_MSFontService,sans-serif" font-weight="400" font-size="24" transform="translate(708.543 607)">’, ‘</text><text fill="#601212" font-family="Consolas,Consolas_MSFontService,sans-serif" font-weight="400" font-size="24" transform="translate(761.209 607)">b</text><text fill="#0D0D0D" font-family="Consolas,Consolas_MSFontService,sans-serif" font-weight="400" font-size="24" transform="translate(774.376 607)">’) # 256</text><text fill="#0D0D0D" font-family="Consolas,Consolas_MSFontService,sans-serif" font-weight="400" font-size="24" transform="translate(366.209 636)">fig.</text><text fill="#3B3838" font-family="Consolas,Consolas_MSFontService,sans-serif" font-weight="400" font-size="24" transform="translate(418.876 636)">pulls</text><text fill="#0D0D0D" font-family="Consolas,Consolas_MSFontService,sans-serif" font-weight="400" font-size="24" transform="translate(484.709 636)">(‘</text><text fill="#601212" font-family="Consolas,Consolas_MSFontService,sans-serif" font-weight="400" font-size="24" transform="translate(511.043 636)">lr</text><text fill="#0D0D0D" font-family="Consolas,Consolas_MSFontService,sans-serif" font-weight="400" font-size="24" transform="translate(537.376 636)">’, ‘</text><text fill="#601212" font-family="Consolas,Consolas_MSFontService,sans-serif" font-weight="400" font-size="24" transform="translate(590.043 636)">alpha</text><text fill="#0D0D0D" font-family="Consolas,Consolas_MSFontService,sans-serif" font-weight="400" font-size="24" transform="translate(655.876 636)">’, default=0.1) # 0.1</text><rect x="0" y="0" width="960" height="151" fill="#F1CEB0"/><path d="M0 148 960 148" stroke="#5C2E4A" stroke-width="8" stroke-miterlimit="8" fill="none" fill-rule="evenodd"/><path d="M0 0 52 0C80.7188-1.20948e-14 104 21.2665 104 47.5 104 73.7335 80.7188 95 52 95L0 95Z" fill="#5C2E4A" fill-rule="evenodd"/><text fill="#F1CEB0" font-family="Comfortaa,Comfortaa_MSFontService,sans-serif" font-weight="700" font-size="64" transform="translate(5.5999 73)">B5</text><text fill="#0D0D0D" font-family="Comfortaa,Comfortaa_MSFontService,sans-serif" font-weight="700" font-size="32" transform="translate(119.712 42)">Accessing Config Values</text><text fill="#0D0D0D" font-family="Comfortaa,Comfortaa_MSFontService,sans-serif" font-weight="400" font-size="32" transform="translate(541.545 42)">–</text><text fill="#0D0D0D" font-family="Comfortaa,Comfortaa_MSFontService,sans-serif" font-weight="400" font-size="32" transform="translate(563.378 42)">data from the config</text><text fill="#0D0D0D" font-family="Comfortaa,Comfortaa_MSFontService,sans-serif" font-weight="400" font-size="32" transform="translate(119.712 81)">object can be accessed using “</text><text fill="#0D0D0D" font-family="Consolas,Consolas_MSFontService,sans-serif" font-weight="400" font-size="32" transform="translate(632.378 81)">pull</text><text fill="#0D0D0D" font-family="Comfortaa,Comfortaa_MSFontService,sans-serif" font-weight="400" font-size="32" transform="translate(703.045 81)">” or “</text><text fill="#0D0D0D" font-family="Consolas,Consolas_MSFontService,sans-serif" font-weight="400" font-size="32" transform="translate(776.045 81)">pulls</text><text fill="#0D0D0D" font-family="Comfortaa,Comfortaa_MSFontService,sans-serif" font-weight="400" font-size="32" transform="translate(864.378 81)">”</text><text fill="#0D0D0D" font-family="Comfortaa,Comfortaa_MSFontService,sans-serif" font-weight="400" font-size="32" transform="translate(119.712 119)">allowing multiple fallback queries</text><path d="M0 0 960 0 960 720 0 720ZM7.66824 7.66824 7.66824 712.332 952.332 712.332 952.332 7.66824Z" fill="#5C2E4A" fill-rule="evenodd"/><path d="M21.5001 180.605C21.5001 173.367 27.3674 167.5 34.6051 167.5L335.395 167.5C342.633 167.5 348.5 173.367 348.5 180.605L348.5 480.395C348.5 487.633 342.633 493.5 335.395 493.5L34.6051 493.5C27.3674 493.5 21.5001 487.633 21.5001 480.395Z" stroke="#BC776E" stroke-width="1.33333" stroke-miterlimit="8" fill="#FFA498" fill-rule="evenodd"/><path d="M21.5001 168.333C21.5001 165.112 24.1117 162.5 27.3334 162.5L342.667 162.5C345.888 162.5 348.5 165.112 348.5 168.333L348.5 191.667C348.5 194.888 345.888 197.5 342.667 197.5L27.3334 197.5C24.1117 197.5 21.5001 194.888 21.5001 191.667Z" stroke="#A41A27" stroke-width="1.33333" stroke-miterlimit="8" fill="#FF4A32" fill-rule="evenodd"/><text fill="#0D0D0D" font-family="Consolas,Consolas_MSFontService,sans-serif" font-weight="400" font-size="27" transform="translate(30.6403 187)">model.yaml</text><text fill="#601212" font-family="Consolas,Consolas_MSFontService,sans-serif" font-weight="400" font-size="27" transform="translate(26.9954 223)">loss:</text><text fill="#0D0D0D" font-family="Consolas,Consolas_MSFontService,sans-serif" font-weight="400" font-size="27" transform="translate(114.995 223)">bce</text><text fill="#601212" font-family="Consolas,Consolas_MSFontService,sans-serif" font-weight="400" font-size="27" transform="translate(26.9954 255)">act:</text><text fill="#0D0D0D" font-family="Consolas,Consolas_MSFontService,sans-serif" font-weight="400" font-size="27" transform="translate(100.329 255)">relu</text><text fill="#601212" font-family="Consolas,Consolas_MSFontService,sans-serif" font-weight="400" font-size="27" transform="translate(26.9954 287)">model:</text><text fill="#601212" font-family="Consolas,Consolas_MSFontService,sans-serif" font-weight="400" font-size="27" transform="translate(56.3287 319)">hidden:</text><text fill="#0D0D0D" font-family="Consolas,Consolas_MSFontService,sans-serif" font-weight="400" font-size="27" transform="translate(173.662 319)">[400, 200]</text><text fill="#601212" font-family="Consolas,Consolas_MSFontService,sans-serif" font-weight="400" font-size="27" transform="translate(56.3287 351)">inp</text><text fill="#601212" font-family="Consolas,Consolas_MSFontService,sans-serif" font-weight="400" font-size="27" transform="translate(100.329 351)">:</text><text fill="#0D0D0D" font-family="Consolas,Consolas_MSFontService,sans-serif" font-weight="400" font-size="27" transform="translate(129.662 351)">&lt;&gt;</text><text fill="#0D0D0D" font-family="Consolas,Consolas_MSFontService,sans-serif" font-weight="400" font-size="27" transform="translate(158.995 351)">data.dim</text><text fill="#601212" font-family="Consolas,Consolas_MSFontService,sans-serif" font-weight="400" font-size="27" transform="translate(56.3287 383)">out:</text><text fill="#0D0D0D" font-family="Consolas,Consolas_MSFontService,sans-serif" font-weight="400" font-size="27" transform="translate(129.662 383)">&lt;&gt;</text><text fill="#0D0D0D" font-family="Consolas,Consolas_MSFontService,sans-serif" font-weight="400" font-size="27" transform="translate(158.995 383)">data.cls</text><text fill="#601212" font-family="Consolas,Consolas_MSFontService,sans-serif" font-weight="400" font-size="27" transform="translate(26.9954 415)">info:</text><text fill="#601212" font-family="Consolas,Consolas_MSFontService,sans-serif" font-weight="400" font-size="27" transform="translate(56.3287 447)">name:</text><text fill="#0D0D0D" font-family="Consolas,Consolas_MSFontService,sans-serif" font-weight="400" font-size="27" transform="translate(144.329 447)">nn</text><text fill="#601212" font-family="Consolas,Consolas_MSFontService,sans-serif" font-weight="400" font-size="27" transform="translate(56.3287 479)">dim:</text><text fill="#0D0D0D" font-family="Consolas,Consolas_MSFontService,sans-serif" font-weight="400" font-size="27" transform="translate(129.662 479)">&lt;&gt;</text><text fill="#0D0D0D" font-family="Consolas,Consolas_MSFontService,sans-serif" font-weight="400" font-size="27" transform="translate(158.995 479)">model.out</text><path d="M358.5 212.569C358.5 205.351 364.351 199.5 371.568 199.5L928.432 199.5C935.649 199.5 941.5 205.351 941.5 212.569L941.5 258.432C941.5 265.649 935.649 271.5 928.432 271.5L371.568 271.5C364.351 271.5 358.5 265.649 358.5 258.432Z" stroke="#5C4357" stroke-width="1.33333" stroke-miterlimit="8" fill="#E6CDDC" fill-rule="evenodd"/><text fill="#0D0D0D" font-family="Consolas,Consolas_MSFontService,sans-serif" font-weight="400" font-size="24" transform="translate(366.209 226)">import</text><text fill="#0D0D0D" font-family="Consolas,Consolas_MSFontService,sans-serif" font-weight="400" font-size="24" transform="translate(458.376 226)">omnifig</text><text fill="#0D0D0D" font-family="Consolas,Consolas_MSFontService,sans-serif" font-weight="400" font-size="24" transform="translate(563.709 226)">as fig</text><text fill="#0D0D0D" font-family="Consolas,Consolas_MSFontService,sans-serif" font-weight="400" font-size="24" transform="translate(366.209 254)">cfg</text><text fill="#0D0D0D" font-family="Consolas,Consolas_MSFontService,sans-serif" font-weight="400" font-size="24" transform="translate(418.876 254)">=</text><text fill="#0D0D0D" font-family="Consolas,Consolas_MSFontService,sans-serif" font-weight="400" font-size="24" transform="translate(445.209 254)">fig.</text><text fill="#3B3838" font-family="Consolas,Consolas_MSFontService,sans-serif" font-weight="400" font-size="24" transform="translate(497.876 254)">create_config</text><text fill="#0D0D0D" font-family="Consolas,Consolas_MSFontService,sans-serif" font-weight="400" font-size="24" transform="translate(669.043 254)">(‘</text><text fill="#A41A27" font-family="Consolas,Consolas_MSFontService,sans-serif" font-weight="400" font-size="24" transform="translate(695.376 254)">model</text><text fill="#0D0D0D" font-family="Consolas,Consolas_MSFontService,sans-serif" font-weight="400" font-size="24" transform="translate(761.209 254)">’, ‘</text><text fill="#A41A27" font-family="Consolas,Consolas_MSFontService,sans-serif" font-weight="400" font-size="24" transform="translate(813.876 254)">d/</text><text fill="#A41A27" font-family="Consolas,Consolas_MSFontService,sans-serif" font-weight="400" font-size="24" transform="translate(840.209 254)">mnist</text><text fill="#0D0D0D" font-family="Consolas,Consolas_MSFontService,sans-serif" font-weight="400" font-size="24" transform="translate(906.043 254)">’)</text><path d="M21.5001 522.95C21.5001 514.417 28.417 507.5 36.9496 507.5L333.051 507.5C341.583 507.5 348.5 514.417 348.5 522.95L348.5 685.051C348.5 693.583 341.583 700.5 333.051 700.5L36.9496 700.5C28.417 700.5 21.5001 693.583 21.5001 685.051Z" stroke="#BC776E" stroke-width="1.33333" stroke-miterlimit="8" fill="#FFA498" fill-rule="evenodd"/><path d="M21.5001 507.5C21.5001 504.186 24.1863 501.5 27.5001 501.5L342.5 501.5C345.814 501.5 348.5 504.186 348.5 507.5L348.5 531.5C348.5 534.814 345.814 537.5 342.5 537.5L27.5001 537.5C24.1863 537.5 21.5001 534.814 21.5001 531.5Z" stroke="#A41A27" stroke-width="1.33333" stroke-miterlimit="8" fill="#FF4A32" fill-rule="evenodd"/><text fill="#0D0D0D" font-family="Consolas,Consolas_MSFontService,sans-serif" font-weight="400" font-size="27" transform="translate(30.3568 526)">d/</text><text fill="#0D0D0D" font-family="Consolas,Consolas_MSFontService,sans-serif" font-weight="400" font-size="27" transform="translate(59.6902 526)">mnist.yaml</text><text fill="#601212" font-family="Consolas,Consolas_MSFontService,sans-serif" font-weight="400" font-size="27" transform="translate(26.7119 562)">bs:</text><text fill="#0D0D0D" font-family="Consolas,Consolas_MSFontService,sans-serif" font-weight="400" font-size="27" transform="translate(85.3786 562)">256</text><text fill="#601212" font-family="Consolas,Consolas_MSFontService,sans-serif" font-weight="400" font-size="27" transform="translate(26.7119 594)">noisy:</text><text fill="#0D0D0D" font-family="Consolas,Consolas_MSFontService,sans-serif" font-weight="400" font-size="27" transform="translate(129.379 594)">yes</text><text fill="#601212" font-family="Consolas,Consolas_MSFontService,sans-serif" font-weight="400" font-size="27" transform="translate(26.7119 626)">data:</text><text fill="#601212" font-family="Consolas,Consolas_MSFontService,sans-serif" font-weight="400" font-size="27" transform="translate(56.0452 658)">dim:</text><text fill="#0D0D0D" font-family="Consolas,Consolas_MSFontService,sans-serif" font-weight="400" font-size="27" transform="translate(129.379 658)">[28, 28]</text><text fill="#601212" font-family="Consolas,Consolas_MSFontService,sans-serif" font-weight="400" font-size="27" transform="translate(56.0452 690)">cls</text><text fill="#601212" font-family="Consolas,Consolas_MSFontService,sans-serif" font-weight="400" font-size="27" transform="translate(100.045 690)">:</text><text fill="#0D0D0D" font-family="Consolas,Consolas_MSFontService,sans-serif" font-weight="400" font-size="27" transform="translate(129.379 690)">10</text><path d="M358.5 313.226C358.5 303.989 365.989 296.5 375.226 296.5L924.774 296.5C934.011 296.5 941.5 303.989 941.5 313.226L941.5 405.774C941.5 415.011 934.011 422.5 924.774 422.5L375.226 422.5C365.989 422.5 358.5 415.011 358.5 405.774Z" stroke="#5C4357" stroke-width="1.33333" stroke-miterlimit="8" fill="#E6CDDC" fill-rule="evenodd"/><text fill="#0D0D0D" font-family="Consolas,Consolas_MSFontService,sans-serif" font-weight="400" font-size="24" transform="translate(366.209 324)">fig.</text><text fill="#3B3838" font-family="Consolas,Consolas_MSFontService,sans-serif" font-weight="400" font-size="24" transform="translate(418.876 324)">pull</text><text fill="#0D0D0D" font-family="Consolas,Consolas_MSFontService,sans-serif" font-weight="400" font-size="24" transform="translate(471.543 324)">(‘</text><text fill="#601212" font-family="Consolas,Consolas_MSFontService,sans-serif" font-weight="400" font-size="24" transform="translate(497.876 324)">act</text><text fill="#0D0D0D" font-family="Consolas,Consolas_MSFontService,sans-serif" font-weight="400" font-size="24" transform="translate(537.376 324)">’) # ‘</text><text fill="#0D0D0D" font-family="Consolas,Consolas_MSFontService,sans-serif" font-weight="400" font-size="24" transform="translate(616.376 324)">relu</text><text fill="#0D0D0D" font-family="Consolas,Consolas_MSFontService,sans-serif" font-weight="400" font-size="24" transform="translate(669.043 324)">’</text><text fill="#0D0D0D" font-family="Consolas,Consolas_MSFontService,sans-serif" font-weight="400" font-size="24" transform="translate(366.209 352)">fig.</text><text fill="#3B3838" font-family="Consolas,Consolas_MSFontService,sans-serif" font-weight="400" font-size="24" transform="translate(418.876 352)">pull</text><text fill="#0D0D0D" font-family="Consolas,Consolas_MSFontService,sans-serif" font-weight="400" font-size="24" transform="translate(471.543 352)">(‘</text><text fill="#601212" font-family="Consolas,Consolas_MSFontService,sans-serif" font-weight="400" font-size="24" transform="translate(497.876 352)">model.act</text><text fill="#0D0D0D" font-family="Consolas,Consolas_MSFontService,sans-serif" font-weight="400" font-size="24" transform="translate(616.376 352)">’) # ‘</text><text fill="#0D0D0D" font-family="Consolas,Consolas_MSFontService,sans-serif" font-weight="400" font-size="24" transform="translate(695.376 352)">relu</text><text fill="#0D0D0D" font-family="Consolas,Consolas_MSFontService,sans-serif" font-weight="400" font-size="24" transform="translate(748.043 352)">’</text><text fill="#0D0D0D" font-family="Consolas,Consolas_MSFontService,sans-serif" font-weight="400" font-size="24" transform="translate(366.209 381)">fig.</text><text fill="#3B3838" font-family="Consolas,Consolas_MSFontService,sans-serif" font-weight="400" font-size="24" transform="translate(418.876 381)">pull</text><text fill="#0D0D0D" font-family="Consolas,Consolas_MSFontService,sans-serif" font-weight="400" font-size="24" transform="translate(471.543 381)">(‘</text><text fill="#601212" font-family="Consolas,Consolas_MSFontService,sans-serif" font-weight="400" font-size="24" transform="translate(497.876 381)">model.hidden.0</text><text fill="#0D0D0D" font-family="Consolas,Consolas_MSFontService,sans-serif" font-weight="400" font-size="24" transform="translate(682.209 381)">’) # 400</text><text fill="#0D0D0D" font-family="Consolas,Consolas_MSFontService,sans-serif" font-weight="400" font-size="24" transform="translate(366.209 410)">fig.</text><text fill="#3B3838" font-family="Consolas,Consolas_MSFontService,sans-serif" font-weight="400" font-size="24" transform="translate(418.876 410)">pull</text><text fill="#0D0D0D" font-family="Consolas,Consolas_MSFontService,sans-serif" font-weight="400" font-size="24" transform="translate(471.543 410)">(‘</text><text fill="#601212" font-family="Consolas,Consolas_MSFontService,sans-serif" font-weight="400" font-size="24" transform="translate(497.876 410)">missing</text><text fill="#0D0D0D" font-family="Consolas,Consolas_MSFontService,sans-serif" font-weight="400" font-size="24" transform="translate(590.043 410)">’, None) # None</text><path d="M304.5 434.167C304.5 431.037 307.037 428.5 310.167 428.5L677.833 428.5 657.524 417.371 837.833 428.5 938.834 428.5C941.963 428.5 944.5 431.037 944.5 434.167L944.5 434.167 944.5 434.167 944.5 442.666 944.5 456.833C944.5 459.963 941.963 462.5 938.834 462.5L837.833 462.5 677.833 462.5 677.833 462.5 310.167 462.5C307.037 462.5 304.5 459.963 304.5 456.833L304.5 442.666 304.5 434.167 304.5 434.167Z" stroke="#77101A" stroke-width="1.33333" stroke-miterlimit="8" fill="#A41A27" fill-rule="evenodd"/><text fill="#FFFFFF" font-family="Comfortaa,Comfortaa_MSFontService,sans-serif" font-weight="400" font-size="27" transform="translate(318.302 454)">Specify default values if the key is not found</text><path d="M304.5 483.667C304.5 480.261 307.261 477.5 310.667 477.5L677.833 477.5 677.833 477.5 837.833 477.5 938.333 477.5C941.739 477.5 944.5 480.261 944.5 483.667L944.5 499.084 944.5 499.084 944.5 508.334 944.5 508.333C944.5 511.739 941.739 514.5 938.333 514.5L837.833 514.5 646.874 529.293 677.833 514.5 310.667 514.5C307.261 514.5 304.5 511.739 304.5 508.333L304.5 508.334 304.5 499.084 304.5 499.084Z" stroke="#77101A" stroke-width="1.33333" stroke-miterlimit="8" fill="#A41A27" fill-rule="evenodd"/><text fill="#FFFFFF" font-family="Comfortaa,Comfortaa_MSFontService,sans-serif" font-weight="400" font-size="27" transform="translate(317.886 505)">Value references are resolved automatically</text><path d="M266.5 668.167C266.5 665.037 269.037 662.5 272.167 662.5L380 662.5 562.381 646.423 550.25 662.5 941.833 662.5C944.963 662.5 947.5 665.037 947.5 668.167L947.5 668.167 947.5 668.167 947.5 676.667 947.5 690.833C947.5 693.963 944.963 696.5 941.833 696.5L550.25 696.5 380 696.5 380 696.5 272.167 696.5C269.037 696.5 266.5 693.963 266.5 690.833L266.5 676.667 266.5 668.167 266.5 668.167Z" stroke="#77101A" stroke-width="1.33333" stroke-miterlimit="8" fill="#A41A27" fill-rule="evenodd"/><text fill="#FFFFFF" font-family="Comfortaa,Comfortaa_MSFontService,sans-serif" font-weight="400" font-size="27" transform="translate(280.155 688)">Use “</text><text fill="#FFFFFF" font-family="Consolas,Consolas_MSFontService,sans-serif" font-weight="400" font-size="27" transform="translate(347.988 688)">pulls</text><text fill="#FFFFFF" font-family="Comfortaa,Comfortaa_MSFontService,sans-serif" font-weight="400" font-size="27" transform="translate(421.322 688)">” to include alternate keys as options</text><path d="M493.5 271.167C493.5 268.037 496.037 265.5 499.167 265.5L757.167 265.5 757.167 265.5 870.167 265.5 939.833 265.5C942.963 265.5 945.5 268.037 945.5 271.167L945.5 285.333 945.5 285.333 945.5 293.833 945.5 293.833C945.5 296.963 942.963 299.5 939.833 299.5L870.167 299.5 742.05 321.34 757.167 299.5 499.167 299.5C496.037 299.5 493.5 296.963 493.5 293.833L493.5 293.833 493.5 285.333 493.5 285.333Z" stroke="#77101A" stroke-width="1.33333" stroke-miterlimit="8" fill="#A41A27" fill-rule="evenodd"/><text fill="#FFFFFF" font-family="Comfortaa,Comfortaa_MSFontService,sans-serif" font-weight="400" font-size="27" transform="translate(512.806 291)">Keys fallback to outer context</text><path d="M587.5 161.5C587.5 157.634 590.634 154.5 594.5 154.5L645.667 154.5 645.667 154.5 732.917 154.5 929.5 154.5C933.366 154.5 936.5 157.634 936.5 161.5L936.5 179 936.5 179 936.5 189.5 936.5 189.5C936.5 193.366 933.366 196.5 929.5 196.5L732.917 196.5 755.941 228.704 645.667 196.5 594.5 196.5C590.634 196.5 587.5 193.366 587.5 189.5L587.5 189.5 587.5 179 587.5 179Z" stroke="#77101A" stroke-width="1.33333" stroke-miterlimit="8" fill="#A41A27" fill-rule="evenodd"/><text fill="#FFFFFF" font-family="Comfortaa,Comfortaa_MSFontService,sans-serif" font-weight="400" font-size="27" transform="translate(603.007 184)">Composing config files</text><path d="M818.5 197.667C818.5 194.261 821.261 191.5 824.667 191.5L924.333 191.5C927.739 191.5 930.5 194.261 930.5 197.667L930.5 222.333C930.5 225.739 927.739 228.5 924.333 228.5L824.667 228.5C821.261 228.5 818.5 225.739 818.5 222.333Z" stroke="#805E79" stroke-width="1.33333" stroke-miterlimit="8" fill="#E7DEE5" fill-rule="evenodd"/><text fill="#5C2E4A" font-family="Comfortaa,Comfortaa_MSFontService,sans-serif" font-weight="400" font-size="27" transform="translate(828.337 219)">see B4</text></g></svg>