<svg width="960" height="720" xmlns="http://www.w3.org/2000/svg" xmlns:xlink="http://www.w3.org/1999/xlink" overflow="hidden"><defs><clipPath id="clip0"><rect x="0" y="0" width="960" height="720"/></clipPath><linearGradient x1="480" y1="0" x2="480" y2="720" gradientUnits="userSpaceOnUse" spreadMethod="reflect" id="fill1"><stop offset="0" stop-color="#EBEAEA"/><stop offset="0.5" stop-color="#E4E3E3"/><stop offset="1" stop-color="#BCBBBB"/></linearGradient><clipPath id="clip2"><rect x="30" y="308" width="22" height="22"/></clipPath><clipPath id="clip3"><rect x="30" y="308" width="22" height="22"/></clipPath><clipPath id="clip4"><rect x="30" y="308" width="22" height="22"/></clipPath><clipPath id="clip5"><rect x="82" y="335" width="23" height="23"/></clipPath><clipPath id="clip6"><rect x="82" y="335" width="23" height="23"/></clipPath><clipPath id="clip7"><rect x="82" y="335" width="23" height="23"/></clipPath><clipPath id="clip8"><rect x="82" y="421" width="23" height="23"/></clipPath><clipPath id="clip9"><rect x="82" y="421" width="23" height="23"/></clipPath><clipPath id="clip10"><rect x="82" y="421" width="23" height="23"/></clipPath><clipPath id="clip11"><rect x="129" y="363" width="22" height="22"/></clipPath><clipPath id="clip12"><rect x="129" y="363" width="22" height="22"/></clipPath><clipPath id="clip13"><rect x="129" y="363" width="22" height="22"/></clipPath><clipPath id="clip14"><rect x="129" y="391" width="22" height="23"/></clipPath><clipPath id="clip15"><rect x="129" y="391" width="22" height="23"/></clipPath><clipPath id="clip16"><rect x="129" y="391" width="22" height="23"/></clipPath><clipPath id="clip17"><rect x="129" y="449" width="22" height="23"/></clipPath><clipPath id="clip18"><rect x="129" y="449" width="22" height="23"/></clipPath><clipPath id="clip19"><rect x="129" y="449" width="22" height="23"/></clipPath><clipPath id="clip20"><rect x="129" y="478" width="22" height="22"/></clipPath><clipPath id="clip21"><rect x="129" y="478" width="22" height="22"/></clipPath><clipPath id="clip22"><rect x="129" y="478" width="22" height="22"/></clipPath><clipPath id="clip23"><rect x="76" y="507" width="23" height="23"/></clipPath><clipPath id="clip24"><rect x="76" y="507" width="23" height="23"/></clipPath><clipPath id="clip25"><rect x="76" y="507" width="23" height="23"/></clipPath><clipPath id="clip26"><rect x="76" y="536" width="23" height="22"/></clipPath><clipPath id="clip27"><rect x="76" y="536" width="23" height="22"/></clipPath><clipPath id="clip28"><rect x="76" y="536" width="23" height="22"/></clipPath></defs><g clip-path="url(#clip0)"><rect x="0" y="0" width="960" height="720" fill="url(#fill1)"/><rect x="0" y="0" width="960" height="151" fill="#F1CEB0"/><path d="M0 148 960 148" stroke="#5C2E4A" stroke-width="8" stroke-miterlimit="8" fill="none" fill-rule="evenodd"/><path d="M0 0 52 0C80.7188-1.20948e-14 104 21.2665 104 47.5 104 73.7335 80.7188 95 52 95L0 95Z" fill="#5C2E4A" fill-rule="evenodd"/><text fill="#F1CEB0" font-family="Comfortaa,Comfortaa_MSFontService,sans-serif" font-weight="700" font-size="64" transform="translate(5.5999 73)">B4</text><text fill="#0D0D0D" font-family="Comfortaa,Comfortaa_MSFontService,sans-serif" font-weight="700" font-size="32" transform="translate(119.712 42)">Composing Config Files</text><text fill="#0D0D0D" font-family="Comfortaa,Comfortaa_MSFontService,sans-serif" font-weight="400" font-size="32" transform="translate(526.712 42)">–</text><text fill="#0D0D0D" font-family="Comfortaa,Comfortaa_MSFontService,sans-serif" font-weight="400" font-size="32" transform="translate(548.545 42)">config files can inherit</text><text fill="#0D0D0D" font-family="Comfortaa,Comfortaa_MSFontService,sans-serif" font-weight="400" font-size="32" transform="translate(119.712 81)">settings (much like python class inheritance) and</text><text fill="#0D0D0D" font-family="Comfortaa,Comfortaa_MSFontService,sans-serif" font-weight="400" font-size="32" transform="translate(119.712 119)">be composed when running scripts</text><path d="M0 0 960 0 960 720 0 720ZM7.66824 7.66824 7.66824 712.332 952.332 712.332 952.332 7.66824Z" fill="#5C2E4A" fill-rule="evenodd"/><path d="M19.5001 170.346C19.5001 164.908 23.9083 160.5 29.3462 160.5L242.654 160.5C248.092 160.5 252.5 164.908 252.5 170.346L252.5 273.654C252.5 279.092 248.092 283.5 242.654 283.5L29.3462 283.5C23.9083 283.5 19.5001 279.092 19.5001 273.654Z" stroke="#BC776E" stroke-width="1.33333" stroke-miterlimit="8" fill="#FFA498" fill-rule="evenodd"/><path d="M19.5001 163.667C19.5001 160.813 21.8132 158.5 24.6666 158.5L247.333 158.5C250.187 158.5 252.5 160.813 252.5 163.667L252.5 184.333C252.5 187.187 250.187 189.5 247.333 189.5L24.6666 189.5C21.8132 189.5 19.5001 187.187 19.5001 184.333Z" stroke="#A41A27" stroke-width="1.33333" stroke-miterlimit="8" fill="#FF4A32" fill-rule="evenodd"/><text fill="#0D0D0D" font-family="Consolas,Consolas_MSFontService,sans-serif" font-weight="400" font-size="24" transform="translate(28.7457 181)">m/</text><text fill="#0D0D0D" font-family="Consolas,Consolas_MSFontService,sans-serif" font-weight="400" font-size="24" transform="translate(55.0791 181)">dnn.yaml</text><text fill="#601212" font-family="Consolas,Consolas_MSFontService,sans-serif" font-weight="400" font-size="24" transform="translate(25.1005 213)">model:</text><text fill="#0D0D0D" font-family="Consolas,Consolas_MSFontService,sans-serif" font-weight="400" font-size="24" transform="translate(117.267 213)">fc</text><text fill="#0D0D0D" font-family="Consolas,Consolas_MSFontService,sans-serif" font-weight="400" font-size="24" transform="translate(143.6 213)">-</text><text fill="#0D0D0D" font-family="Consolas,Consolas_MSFontService,sans-serif" font-weight="400" font-size="24" transform="translate(156.767 213)">net</text><text fill="#601212" font-family="Consolas,Consolas_MSFontService,sans-serif" font-weight="400" font-size="24" transform="translate(25.1005 241)">hidden:</text><text fill="#0D0D0D" font-family="Consolas,Consolas_MSFontService,sans-serif" font-weight="400" font-size="24" transform="translate(130.434 241)">[60, 60]</text><text fill="#601212" font-family="Consolas,Consolas_MSFontService,sans-serif" font-weight="400" font-size="24" transform="translate(25.1005 270)">act:</text><text fill="#0D0D0D" font-family="Consolas,Consolas_MSFontService,sans-serif" font-weight="400" font-size="24" transform="translate(90.9338 270)">relu</text><path d="M333.5 417.298C333.5 410.782 338.782 405.5 345.298 405.5L923.702 405.5C930.218 405.5 935.5 410.782 935.5 417.298L935.5 458.702C935.5 465.218 930.218 470.5 923.702 470.5L345.298 470.5C338.782 470.5 333.5 465.218 333.5 458.702Z" stroke="#5C4357" stroke-width="1.33333" stroke-miterlimit="8" fill="#E6CDDC" fill-rule="evenodd"/><text fill="#CC1800" font-family="Consolas,Consolas_MSFontService,sans-serif" font-weight="400" font-size="21" transform="translate(341.212 429)">cfg</text><text fill="#0D0D0D" font-family="Consolas,Consolas_MSFontService,sans-serif" font-weight="400" font-size="21" transform="translate(387.879 429)">=</text><text fill="#0D0D0D" font-family="Consolas,Consolas_MSFontService,sans-serif" font-weight="400" font-size="21" transform="translate(411.212 429)">fig.</text><text fill="#3B3838" font-family="Consolas,Consolas_MSFontService,sans-serif" font-weight="400" font-size="21" transform="translate(457.879 429)">create_config</text><text fill="#0D0D0D" font-family="Consolas,Consolas_MSFontService,sans-serif" font-weight="400" font-size="21" transform="translate(609.546 429)">(‘</text><text fill="#A41A27" font-family="Consolas,Consolas_MSFontService,sans-serif" font-weight="400" font-size="21" transform="translate(632.879 429)">best</text><text fill="#0D0D0D" font-family="Consolas,Consolas_MSFontService,sans-serif" font-weight="400" font-size="21" transform="translate(679.546 429)">’)</text><text fill="#0D0D0D" font-family="Consolas,Consolas_MSFontService,sans-serif" font-weight="400" font-size="21" transform="translate(341.212 455)">print(</text><text fill="#CC1800" font-family="Consolas,Consolas_MSFontService,sans-serif" font-weight="400" font-size="21" transform="translate(411.212 455)">cfg</text><text fill="#0D0D0D" font-family="Consolas,Consolas_MSFontService,sans-serif" font-weight="400" font-size="21" transform="translate(446.212 455)">)</text><path d="M265.5 170.425C265.5 164.943 269.944 160.5 275.425 160.5L465.575 160.5C471.057 160.5 475.5 164.943 475.5 170.425L475.5 245.575C475.5 251.057 471.057 255.5 465.575 255.5L275.425 255.5C269.944 255.5 265.5 251.057 265.5 245.575Z" stroke="#BC776E" stroke-width="1.33333" stroke-miterlimit="8" fill="#FFA498" fill-rule="evenodd"/><path d="M265.5 163.667C265.5 160.813 267.813 158.5 270.667 158.5L470.333 158.5C473.187 158.5 475.5 160.813 475.5 163.667L475.5 184.333C475.5 187.187 473.187 189.5 470.333 189.5L270.667 189.5C267.813 189.5 265.5 187.187 265.5 184.333Z" stroke="#A41A27" stroke-width="1.33333" stroke-miterlimit="8" fill="#FF4A32" fill-rule="evenodd"/><text fill="#0D0D0D" font-family="Consolas,Consolas_MSFontService,sans-serif" font-weight="400" font-size="24" transform="translate(274.214 181)">m/</text><text fill="#0D0D0D" font-family="Consolas,Consolas_MSFontService,sans-serif" font-weight="400" font-size="24" transform="translate(300.548 181)">cnn.yaml</text><text fill="#601212" font-family="Consolas,Consolas_MSFontService,sans-serif" font-weight="400" font-size="24" transform="translate(270.569 213)">_base:</text><text fill="#0D0D0D" font-family="Consolas,Consolas_MSFontService,sans-serif" font-weight="400" font-size="24" transform="translate(362.736 213)">[</text><text fill="#CC1800" font-family="Consolas,Consolas_MSFontService,sans-serif" font-weight="400" font-size="24" transform="translate(375.903 213)">m/base</text><text fill="#0D0D0D" font-family="Consolas,Consolas_MSFontService,sans-serif" font-weight="400" font-size="24" transform="translate(454.903 213)">]</text><text fill="#601212" font-family="Consolas,Consolas_MSFontService,sans-serif" font-weight="400" font-size="24" transform="translate(270.569 241)">model:</text><text fill="#0D0D0D" font-family="Consolas,Consolas_MSFontService,sans-serif" font-weight="400" font-size="24" transform="translate(362.736 241)">conv</text><text fill="#0D0D0D" font-family="Consolas,Consolas_MSFontService,sans-serif" font-weight="400" font-size="24" transform="translate(415.403 241)">-</text><text fill="#0D0D0D" font-family="Consolas,Consolas_MSFontService,sans-serif" font-weight="400" font-size="24" transform="translate(428.569 241)">net</text><path d="M488.5 170.425C488.5 164.943 492.943 160.5 498.425 160.5L687.576 160.5C693.057 160.5 697.5 164.943 697.5 170.425L697.5 245.576C697.5 251.057 693.057 255.5 687.576 255.5L498.425 255.5C492.943 255.5 488.5 251.057 488.5 245.576Z" stroke="#BC776E" stroke-width="1.33333" stroke-miterlimit="8" fill="#FFA498" fill-rule="evenodd"/><path d="M488.5 163.667C488.5 160.813 490.813 158.5 493.667 158.5L692.333 158.5C695.187 158.5 697.5 160.813 697.5 163.667L697.5 184.333C697.5 187.187 695.187 189.5 692.333 189.5L493.667 189.5C490.813 189.5 488.5 187.187 488.5 184.333Z" stroke="#A41A27" stroke-width="1.33333" stroke-miterlimit="8" fill="#FF4A32" fill-rule="evenodd"/><text fill="#0D0D0D" font-family="Consolas,Consolas_MSFontService,sans-serif" font-weight="400" font-size="24" transform="translate(497.973 181)">d/</text><text fill="#0D0D0D" font-family="Consolas,Consolas_MSFontService,sans-serif" font-weight="400" font-size="24" transform="translate(524.307 181)">mnist.yaml</text><text fill="#601212" font-family="Consolas,Consolas_MSFontService,sans-serif" font-weight="400" font-size="24" transform="translate(494.328 213)">path:</text><text fill="#0D0D0D" font-family="Consolas,Consolas_MSFontService,sans-serif" font-weight="400" font-size="24" transform="translate(573.328 213)">/to/data/</text><text fill="#601212" font-family="Consolas,Consolas_MSFontService,sans-serif" font-weight="400" font-size="24" transform="translate(494.328 241)">batchsize</text><text fill="#601212" font-family="Consolas,Consolas_MSFontService,sans-serif" font-weight="400" font-size="24" transform="translate(612.828 241)">:</text><text fill="#0D0D0D" font-family="Consolas,Consolas_MSFontService,sans-serif" font-weight="400" font-size="24" transform="translate(639.161 241)">64</text><path d="M712.5 170.093C712.5 164.795 716.795 160.5 722.093 160.5L925.907 160.5C931.205 160.5 935.5 164.795 935.5 170.093L935.5 245.907C935.5 251.205 931.205 255.5 925.907 255.5L722.093 255.5C716.795 255.5 712.5 251.205 712.5 245.907Z" stroke="#BC776E" stroke-width="1.33333" stroke-miterlimit="8" fill="#FFA498" fill-rule="evenodd"/><path d="M712.5 163.667C712.5 160.813 714.813 158.5 717.667 158.5L930.334 158.5C933.187 158.5 935.5 160.813 935.5 163.667L935.5 184.333C935.5 187.187 933.187 189.5 930.333 189.5L717.667 189.5C714.813 189.5 712.5 187.187 712.5 184.333Z" stroke="#A41A27" stroke-width="1.33333" stroke-miterlimit="8" fill="#FF4A32" fill-rule="evenodd"/><text fill="#0D0D0D" font-family="Consolas,Consolas_MSFontService,sans-serif" font-weight="400" font-size="24" transform="translate(721.399 181)">d/</text><text fill="#0D0D0D" font-family="Consolas,Consolas_MSFontService,sans-serif" font-weight="400" font-size="24" transform="translate(747.732 181)">noisy.yaml</text><text fill="#601212" font-family="Consolas,Consolas_MSFontService,sans-serif" font-weight="400" font-size="24" transform="translate(717.754 213)">_base:</text><text fill="#0D0D0D" font-family="Consolas,Consolas_MSFontService,sans-serif" font-weight="400" font-size="24" transform="translate(809.92 213)">[</text><text fill="#CC1800" font-family="Consolas,Consolas_MSFontService,sans-serif" font-weight="400" font-size="24" transform="translate(823.087 213)">m/</text><text fill="#CC1800" font-family="Consolas,Consolas_MSFontService,sans-serif" font-weight="400" font-size="24" transform="translate(849.42 213)">mnist</text><text fill="#0D0D0D" font-family="Consolas,Consolas_MSFontService,sans-serif" font-weight="400" font-size="24" transform="translate(915.254 213)">]</text><text fill="#601212" font-family="Consolas,Consolas_MSFontService,sans-serif" font-weight="400" font-size="24" transform="translate(717.754 241)">sigma:</text><text fill="#0D0D0D" font-family="Consolas,Consolas_MSFontService,sans-serif" font-weight="400" font-size="24" transform="translate(809.92 241)">0.1</text><path d="M273.5 276.426C273.5 270.944 277.944 266.5 283.426 266.5L596.574 266.5C602.056 266.5 606.5 270.944 606.5 276.426L606.5 380.574C606.5 386.056 602.056 390.5 596.574 390.5L283.426 390.5C277.944 390.5 273.5 386.056 273.5 380.574Z" stroke="#BC776E" stroke-width="1.33333" stroke-miterlimit="8" fill="#FFA498" fill-rule="evenodd"/><path d="M273.5 269.833C273.5 266.888 275.888 264.5 278.833 264.5L601.167 264.5C604.112 264.5 606.5 266.888 606.5 269.833L606.5 291.167C606.5 294.112 604.112 296.5 601.167 296.5L278.833 296.5C275.888 296.5 273.5 294.112 273.5 291.167Z" stroke="#A41A27" stroke-width="1.33333" stroke-miterlimit="8" fill="#FF4A32" fill-rule="evenodd"/><text fill="#0D0D0D" font-family="Consolas,Consolas_MSFontService,sans-serif" font-weight="400" font-size="24" transform="translate(282.649 287)">demo.yaml</text><text fill="#601212" font-family="Consolas,Consolas_MSFontService,sans-serif" font-weight="400" font-size="24" transform="translate(279.004 320)">_base:</text><text fill="#0D0D0D" font-family="Consolas,Consolas_MSFontService,sans-serif" font-weight="400" font-size="24" transform="translate(371.17 320)">[</text><text fill="#CC1800" font-family="Consolas,Consolas_MSFontService,sans-serif" font-weight="400" font-size="24" transform="translate(384.337 320)">m/</text><text fill="#CC1800" font-family="Consolas,Consolas_MSFontService,sans-serif" font-weight="400" font-size="24" transform="translate(410.67 320)">dnn</text><text fill="#0D0D0D" font-family="Consolas,Consolas_MSFontService,sans-serif" font-weight="400" font-size="24" transform="translate(450.17 320)">,</text><text fill="#CC1800" font-family="Consolas,Consolas_MSFontService,sans-serif" font-weight="400" font-size="24" transform="translate(476.504 320)">d/</text><text fill="#CC1800" font-family="Consolas,Consolas_MSFontService,sans-serif" font-weight="400" font-size="24" transform="translate(502.837 320)">mnist</text><text fill="#0D0D0D" font-family="Consolas,Consolas_MSFontService,sans-serif" font-weight="400" font-size="24" transform="translate(568.67 320)">]</text><text fill="#601212" font-family="Consolas,Consolas_MSFontService,sans-serif" font-weight="400" font-size="24" transform="translate(279.004 348)">batchsize</text><text fill="#601212" font-family="Consolas,Consolas_MSFontService,sans-serif" font-weight="400" font-size="24" transform="translate(397.504 348)">:</text><text fill="#0D0D0D" font-family="Consolas,Consolas_MSFontService,sans-serif" font-weight="400" font-size="24" transform="translate(423.837 348)">10</text><text fill="#601212" font-family="Consolas,Consolas_MSFontService,sans-serif" font-weight="400" font-size="24" transform="translate(279.004 377)">gpu</text><text fill="#601212" font-family="Consolas,Consolas_MSFontService,sans-serif" font-weight="400" font-size="24" transform="translate(318.504 377)">:</text><text fill="#0D0D0D" font-family="Consolas,Consolas_MSFontService,sans-serif" font-weight="400" font-size="24" transform="translate(344.837 377)">no</text><path d="M616.5 276.426C616.5 270.944 620.944 266.5 626.426 266.5L929.574 266.5C935.056 266.5 939.5 270.944 939.5 276.426L939.5 380.574C939.5 386.056 935.056 390.5 929.574 390.5L626.426 390.5C620.944 390.5 616.5 386.056 616.5 380.574Z" stroke="#BC776E" stroke-width="1.33333" stroke-miterlimit="8" fill="#FFA498" fill-rule="evenodd"/><path d="M616.5 269.833C616.5 266.888 618.888 264.5 621.833 264.5L934.167 264.5C937.112 264.5 939.5 266.888 939.5 269.833L939.5 291.167C939.5 294.112 937.112 296.5 934.167 296.5L621.833 296.5C618.888 296.5 616.5 294.112 616.5 291.167Z" stroke="#A41A27" stroke-width="1.33333" stroke-miterlimit="8" fill="#FF4A32" fill-rule="evenodd"/><text fill="#0D0D0D" font-family="Consolas,Consolas_MSFontService,sans-serif" font-weight="400" font-size="24" transform="translate(626.008 287)">best.yaml</text><text fill="#601212" font-family="Consolas,Consolas_MSFontService,sans-serif" font-weight="400" font-size="24" transform="translate(622.363 320)">_base:</text><text fill="#0D0D0D" font-family="Consolas,Consolas_MSFontService,sans-serif" font-weight="400" font-size="24" transform="translate(714.529 320)">[</text><text fill="#CC1800" font-family="Consolas,Consolas_MSFontService,sans-serif" font-weight="400" font-size="24" transform="translate(727.696 320)">m/</text><text fill="#CC1800" font-family="Consolas,Consolas_MSFontService,sans-serif" font-weight="400" font-size="24" transform="translate(754.029 320)">cnn</text><text fill="#0D0D0D" font-family="Consolas,Consolas_MSFontService,sans-serif" font-weight="400" font-size="24" transform="translate(793.529 320)">,</text><text fill="#CC1800" font-family="Consolas,Consolas_MSFontService,sans-serif" font-weight="400" font-size="24" transform="translate(819.863 320)">d/noisy</text><text fill="#0D0D0D" font-family="Consolas,Consolas_MSFontService,sans-serif" font-weight="400" font-size="24" transform="translate(912.029 320)">]</text><text fill="#601212" font-family="Consolas,Consolas_MSFontService,sans-serif" font-weight="400" font-size="24" transform="translate(622.363 348)">load:</text><text fill="#0D0D0D" font-family="Consolas,Consolas_MSFontService,sans-serif" font-weight="400" font-size="24" transform="translate(701.363 348)">ckpt10k</text><text fill="#601212" font-family="Consolas,Consolas_MSFontService,sans-serif" font-weight="400" font-size="24" transform="translate(622.363 377)">sigma:</text><text fill="#0D0D0D" font-family="Consolas,Consolas_MSFontService,sans-serif" font-weight="400" font-size="24" transform="translate(714.529 377)">0.05</text><path d="M19.5001 607.602C19.5001 603.68 22.6796 600.5 26.6019 600.5L314.398 600.5C318.32 600.5 321.5 603.68 321.5 607.602L321.5 631.398C321.5 635.32 318.32 638.5 314.398 638.5L26.6019 638.5C22.6796 638.5 19.5001 635.32 19.5001 631.398Z" stroke="#070707" stroke-width="1.33333" stroke-miterlimit="8" fill="#0D0D0D" fill-rule="evenodd"/><text fill="#E7E6E6" font-family="Consolas,Consolas_MSFontService,sans-serif" font-weight="400" font-size="21" transform="translate(33.5162 625)">$ fig</text><text fill="#74C004" font-family="Consolas,Consolas_MSFontService,sans-serif" font-weight="400" font-size="21" transform="translate(103.516 625)">eval</text><text fill="#E55966" font-family="Consolas,Consolas_MSFontService,sans-serif" font-weight="400" font-size="21" transform="translate(161.85 625)">d/noisy demo</text><text fill="#0D0D0D" font-family="Consolas,Consolas_MSFontService,sans-serif" font-weight="400" font-size="24" transform="translate(60.5999 325)">config</text><text fill="#0D0D0D" font-family="Consolas,Consolas_MSFontService,sans-serif" font-weight="400" font-size="24" transform="translate(139.6 325)">/</text><text fill="#0D0D0D" font-family="Consolas,Consolas_MSFontService,sans-serif" font-weight="400" font-size="24" transform="translate(34.2666 353)">├──</text><text fill="#0D0D0D" font-family="Consolas,Consolas_MSFontService,sans-serif" font-weight="400" font-size="24" transform="translate(113.267 353)">m/</text><text fill="#0D0D0D" font-family="Consolas,Consolas_MSFontService,sans-serif" font-weight="400" font-size="24" transform="translate(34.2666 382)">│</text><text fill="#0D0D0D" font-family="Consolas,Consolas_MSFontService,sans-serif" font-weight="400" font-size="24" transform="translate(86.9332 382)">├──</text><text fill="#0D0D0D" font-family="Consolas,Consolas_MSFontService,sans-serif" font-weight="400" font-size="24" transform="translate(152.767 382)">c</text><text fill="#0D0D0D" font-family="Consolas,Consolas_MSFontService,sans-serif" font-weight="400" font-size="24" transform="translate(165.933 382)">nn</text><text fill="#0D0D0D" font-family="Consolas,Consolas_MSFontService,sans-serif" font-weight="400" font-size="24" transform="translate(192.267 382)">.y</text><text fill="#0D0D0D" font-family="Consolas,Consolas_MSFontService,sans-serif" font-weight="400" font-size="24" transform="translate(218.6 382)">a</text><text fill="#0D0D0D" font-family="Consolas,Consolas_MSFontService,sans-serif" font-weight="400" font-size="24" transform="translate(231.767 382)">ml</text><text fill="#0D0D0D" font-family="Consolas,Consolas_MSFontService,sans-serif" font-weight="400" font-size="24" transform="translate(34.2666 411)">│</text><text fill="#0D0D0D" font-family="Consolas,Consolas_MSFontService,sans-serif" font-weight="400" font-size="24" transform="translate(86.9332 411)">└──</text><text fill="#0D0D0D" font-family="Consolas,Consolas_MSFontService,sans-serif" font-weight="400" font-size="24" transform="translate(152.767 411)">d</text><text fill="#0D0D0D" font-family="Consolas,Consolas_MSFontService,sans-serif" font-weight="400" font-size="24" transform="translate(165.933 411)">nn</text><text fill="#0D0D0D" font-family="Consolas,Consolas_MSFontService,sans-serif" font-weight="400" font-size="24" transform="translate(192.267 411)">.y</text><text fill="#0D0D0D" font-family="Consolas,Consolas_MSFontService,sans-serif" font-weight="400" font-size="24" transform="translate(218.6 411)">a</text><text fill="#0D0D0D" font-family="Consolas,Consolas_MSFontService,sans-serif" font-weight="400" font-size="24" transform="translate(231.767 411)">ml</text><text fill="#0D0D0D" font-family="Consolas,Consolas_MSFontService,sans-serif" font-weight="400" font-size="24" transform="translate(34.2666 440)">├── d/</text><text fill="#0D0D0D" font-family="Consolas,Consolas_MSFontService,sans-serif" font-weight="400" font-size="24" transform="translate(34.2666 469)">│</text><text fill="#0D0D0D" font-family="Consolas,Consolas_MSFontService,sans-serif" font-weight="400" font-size="24" transform="translate(86.9332 469)">├──</text><text fill="#0D0D0D" font-family="Consolas,Consolas_MSFontService,sans-serif" font-weight="400" font-size="24" transform="translate(152.767 469)">mnist</text><text fill="#0D0D0D" font-family="Consolas,Consolas_MSFontService,sans-serif" font-weight="400" font-size="24" transform="translate(218.6 469)">.</text><text fill="#0D0D0D" font-family="Consolas,Consolas_MSFontService,sans-serif" font-weight="400" font-size="24" transform="translate(231.767 469)">yaml</text><text fill="#0D0D0D" font-family="Consolas,Consolas_MSFontService,sans-serif" font-weight="400" font-size="24" transform="translate(34.2666 497)">│</text><text fill="#0D0D0D" font-family="Consolas,Consolas_MSFontService,sans-serif" font-weight="400" font-size="24" transform="translate(86.9332 497)">└──</text><text fill="#0D0D0D" font-family="Consolas,Consolas_MSFontService,sans-serif" font-weight="400" font-size="24" transform="translate(152.767 497)">noisy.yaml</text><text fill="#0D0D0D" font-family="Consolas,Consolas_MSFontService,sans-serif" font-weight="400" font-size="24" transform="translate(34.2666 526)">├──</text><text fill="#0D0D0D" font-family="Consolas,Consolas_MSFontService,sans-serif" font-weight="400" font-size="24" transform="translate(100.1 526)">best</text><text fill="#0D0D0D" font-family="Consolas,Consolas_MSFontService,sans-serif" font-weight="400" font-size="24" transform="translate(152.767 526)">.yaml</text><text fill="#0D0D0D" font-family="Consolas,Consolas_MSFontService,sans-serif" font-weight="400" font-size="24" transform="translate(34.2666 555)">└──</text><text fill="#0D0D0D" font-family="Consolas,Consolas_MSFontService,sans-serif" font-weight="400" font-size="24" transform="translate(100.1 555)">demo.yaml</text><g clip-path="url(#clip2)"><g clip-path="url(#clip3)"><g clip-path="url(#clip4)"><path d="M48.5625 325.417 33.4375 325.417C32.9333 325.417 32.5208 325.004 32.5208 324.5L32.5208 313.5C32.5208 312.996 32.9333 312.583 33.4375 312.583L37.7458 312.583C37.9292 312.583 38.1125 312.629 38.25 312.744L40.7708 314.417 48.5625 314.417C49.0667 314.417 49.4792 314.829 49.4792 315.333L49.4792 324.5C49.4792 325.004 49.0667 325.417 48.5625 325.417Z"/></g></g></g><g clip-path="url(#clip5)"><g clip-path="url(#clip6)"><g clip-path="url(#clip7)"><path d="M101.406 353.208 85.5938 353.208C85.0667 353.208 84.6354 352.777 84.6354 352.25L84.6354 340.75C84.6354 340.223 85.0667 339.792 85.5938 339.792L90.0979 339.792C90.2896 339.792 90.4812 339.84 90.625 339.959L93.2604 341.708 101.406 341.708C101.933 341.708 102.365 342.14 102.365 342.667L102.365 352.25C102.365 352.777 101.933 353.208 101.406 353.208Z"/></g></g></g><g clip-path="url(#clip8)"><g clip-path="url(#clip9)"><g clip-path="url(#clip10)"><path d="M101.406 439.208 85.5938 439.208C85.0667 439.208 84.6354 438.777 84.6354 438.25L84.6354 426.75C84.6354 426.223 85.0667 425.792 85.5938 425.792L90.0979 425.792C90.2896 425.792 90.4812 425.84 90.625 425.959L93.2604 427.708 101.406 427.708C101.933 427.708 102.365 428.14 102.365 428.667L102.365 438.25C102.365 438.777 101.933 439.208 101.406 439.208Z"/></g></g></g><g clip-path="url(#clip11)"><g clip-path="url(#clip12)"><g clip-path="url(#clip13)"><path d="M134.271 381.792 134.271 366.208 140 366.208 140 371.021 145.729 371.021 145.729 381.792 134.271 381.792ZM141.375 366.781 144.24 369.646 141.375 369.646 141.375 366.781ZM141.375 364.833 132.896 364.833 132.896 383.167 147.104 383.167 147.104 369.875 141.375 364.833Z"/><path d="M135.646 373.312 144.354 373.312 144.354 374.229 135.646 374.229Z"/><path d="M135.646 371.479 138.625 371.479 138.625 372.396 135.646 372.396Z"/><path d="M135.646 375.146 144.354 375.146 144.354 376.062 135.646 376.062Z"/><path d="M135.646 376.979 144.354 376.979 144.354 377.896 135.646 377.896Z"/><path d="M135.646 378.812 144.354 378.812 144.354 379.729 135.646 379.729Z"/></g></g></g><g clip-path="url(#clip14)"><g clip-path="url(#clip15)"><g clip-path="url(#clip16)"><path d="M5.27083 18.7917 5.27083 3.20833 11 3.20833 11 8.02083 16.7292 8.02083 16.7292 18.7917 5.27083 18.7917ZM12.375 3.78125 15.2396 6.64583 12.375 6.64583 12.375 3.78125ZM12.375 1.83333 3.89583 1.83333 3.89583 20.1667 18.1042 20.1667 18.1042 6.875 12.375 1.83333Z" transform="matrix(1 0 0 1.04545 129 391)"/><path d="M6.64583 10.3125 15.3542 10.3125 15.3542 11.2292 6.64583 11.2292Z" transform="matrix(1 0 0 1.04545 129 391)"/><path d="M6.64583 8.47917 9.625 8.47917 9.625 9.39583 6.64583 9.39583Z" transform="matrix(1 0 0 1.04545 129 391)"/><path d="M6.64583 12.1458 15.3542 12.1458 15.3542 13.0625 6.64583 13.0625Z" transform="matrix(1 0 0 1.04545 129 391)"/><path d="M6.64583 13.9792 15.3542 13.9792 15.3542 14.8958 6.64583 14.8958Z" transform="matrix(1 0 0 1.04545 129 391)"/><path d="M6.64583 15.8125 15.3542 15.8125 15.3542 16.7292 6.64583 16.7292Z" transform="matrix(1 0 0 1.04545 129 391)"/></g></g></g><g clip-path="url(#clip17)"><g clip-path="url(#clip18)"><g clip-path="url(#clip19)"><path d="M5.27083 18.7917 5.27083 3.20833 11 3.20833 11 8.02083 16.7292 8.02083 16.7292 18.7917 5.27083 18.7917ZM12.375 3.78125 15.2396 6.64583 12.375 6.64583 12.375 3.78125ZM12.375 1.83333 3.89583 1.83333 3.89583 20.1667 18.1042 20.1667 18.1042 6.875 12.375 1.83333Z" transform="matrix(1 0 0 1.04545 129 449)"/><path d="M6.64583 10.3125 15.3542 10.3125 15.3542 11.2292 6.64583 11.2292Z" transform="matrix(1 0 0 1.04545 129 449)"/><path d="M6.64583 8.47917 9.625 8.47917 9.625 9.39583 6.64583 9.39583Z" transform="matrix(1 0 0 1.04545 129 449)"/><path d="M6.64583 12.1458 15.3542 12.1458 15.3542 13.0625 6.64583 13.0625Z" transform="matrix(1 0 0 1.04545 129 449)"/><path d="M6.64583 13.9792 15.3542 13.9792 15.3542 14.8958 6.64583 14.8958Z" transform="matrix(1 0 0 1.04545 129 449)"/><path d="M6.64583 15.8125 15.3542 15.8125 15.3542 16.7292 6.64583 16.7292Z" transform="matrix(1 0 0 1.04545 129 449)"/></g></g></g><g clip-path="url(#clip20)"><g clip-path="url(#clip21)"><g clip-path="url(#clip22)"><path d="M134.271 496.792 134.271 481.208 140 481.208 140 486.021 145.729 486.021 145.729 496.792 134.271 496.792ZM141.375 481.781 144.24 484.646 141.375 484.646 141.375 481.781ZM141.375 479.833 132.896 479.833 132.896 498.167 147.104 498.167 147.104 484.875 141.375 479.833Z"/><path d="M135.646 488.312 144.354 488.312 144.354 489.229 135.646 489.229Z"/><path d="M135.646 486.479 138.625 486.479 138.625 487.396 135.646 487.396Z"/><path d="M135.646 490.146 144.354 490.146 144.354 491.062 135.646 491.062Z"/><path d="M135.646 491.979 144.354 491.979 144.354 492.896 135.646 492.896Z"/><path d="M135.646 493.812 144.354 493.812 144.354 494.729 135.646 494.729Z"/></g></g></g><g clip-path="url(#clip23)"><g clip-path="url(#clip24)"><g clip-path="url(#clip25)"><path d="M81.5104 526.646 81.5104 510.354 87.5 510.354 87.5 515.385 93.4896 515.385 93.4896 526.646 81.5104 526.646ZM88.9375 510.953 91.9323 513.948 88.9375 513.948 88.9375 510.953ZM88.9375 508.917 80.0729 508.917 80.0729 528.083 94.9271 528.083 94.9271 514.188 88.9375 508.917Z"/><path d="M82.9479 517.781 92.0521 517.781 92.0521 518.74 82.9479 518.74Z"/><path d="M82.9479 515.865 86.0625 515.865 86.0625 516.823 82.9479 516.823Z"/><path d="M82.9479 519.698 92.0521 519.698 92.0521 520.656 82.9479 520.656Z"/><path d="M82.9479 521.615 92.0521 521.615 92.0521 522.573 82.9479 522.573Z"/><path d="M82.9479 523.531 92.0521 523.531 92.0521 524.49 82.9479 524.49Z"/></g></g></g><g clip-path="url(#clip26)"><g clip-path="url(#clip27)"><g clip-path="url(#clip28)"><path d="M5.27083 18.7917 5.27083 3.20833 11 3.20833 11 8.02083 16.7292 8.02083 16.7292 18.7917 5.27083 18.7917ZM12.375 3.78125 15.2396 6.64583 12.375 6.64583 12.375 3.78125ZM12.375 1.83333 3.89583 1.83333 3.89583 20.1667 18.1042 20.1667 18.1042 6.875 12.375 1.83333Z" transform="matrix(1.04545 0 0 1 76 536)"/><path d="M6.64583 10.3125 15.3542 10.3125 15.3542 11.2292 6.64583 11.2292Z" transform="matrix(1.04545 0 0 1 76 536)"/><path d="M6.64583 8.47917 9.625 8.47917 9.625 9.39583 6.64583 9.39583Z" transform="matrix(1.04545 0 0 1 76 536)"/><path d="M6.64583 12.1458 15.3542 12.1458 15.3542 13.0625 6.64583 13.0625Z" transform="matrix(1.04545 0 0 1 76 536)"/><path d="M6.64583 13.9792 15.3542 13.9792 15.3542 14.8958 6.64583 14.8958Z" transform="matrix(1.04545 0 0 1 76 536)"/><path d="M6.64583 15.8125 15.3542 15.8125 15.3542 16.7292 6.64583 16.7292Z" transform="matrix(1.04545 0 0 1 76 536)"/></g></g></g><text fill="#0D0D0D" font-family="Consolas,Consolas_MSFontService,sans-serif" font-weight="400" font-size="21" transform="translate(344.406 497)">load: ckpt10k</text><text fill="#0D0D0D" font-family="Consolas,Consolas_MSFontService,sans-serif" font-weight="400" font-size="21" transform="translate(344.406 523)">model: conv</text><text fill="#0D0D0D" font-family="Consolas,Consolas_MSFontService,sans-serif" font-weight="400" font-size="21" transform="translate(472.74 523)">-</text><text fill="#0D0D0D" font-family="Consolas,Consolas_MSFontService,sans-serif" font-weight="400" font-size="21" transform="translate(484.406 523)">net</text><text fill="#0D0D0D" font-family="Consolas,Consolas_MSFontService,sans-serif" font-weight="400" font-size="21" transform="translate(344.406 548)">hidden: [60, 60]</text><text fill="#0D0D0D" font-family="Consolas,Consolas_MSFontService,sans-serif" font-weight="400" font-size="21" transform="translate(344.406 574)">act:</text><text fill="#0D0D0D" font-family="Consolas,Consolas_MSFontService,sans-serif" font-weight="400" font-size="21" transform="translate(402.74 574)">relu</text><text fill="#0D0D0D" font-family="Consolas,Consolas_MSFontService,sans-serif" font-weight="400" font-size="21" transform="translate(344.406 600)">path: /to/data/</text><text fill="#0D0D0D" font-family="Consolas,Consolas_MSFontService,sans-serif" font-weight="400" font-size="21" transform="translate(344.406 625)">batchsize</text><text fill="#0D0D0D" font-family="Consolas,Consolas_MSFontService,sans-serif" font-weight="400" font-size="21" transform="translate(449.406 625)">: 64</text><text fill="#0D0D0D" font-family="Consolas,Consolas_MSFontService,sans-serif" font-weight="400" font-size="21" transform="translate(344.406 651)">sigma: 0.05</text><path d="M333.5 676.563C333.5 671.005 338.005 666.5 343.563 666.5L925.437 666.5C930.995 666.5 935.5 671.005 935.5 676.563L935.5 693.437C935.5 698.995 930.995 703.5 925.437 703.5L343.563 703.5C338.005 703.5 333.5 698.995 333.5 693.437Z" stroke="#5C4357" stroke-width="1.33333" stroke-miterlimit="8" fill="#E6CDDC" fill-rule="evenodd"/><text fill="#0D0D0D" font-family="Consolas,Consolas_MSFontService,sans-serif" font-weight="400" font-size="21" transform="translate(341.212 690)">out =</text><text fill="#0D0D0D" font-family="Consolas,Consolas_MSFontService,sans-serif" font-weight="400" font-size="21" transform="translate(411.212 690)">fig.</text><text fill="#3B3838" font-family="Consolas,Consolas_MSFontService,sans-serif" font-weight="400" font-size="21" transform="translate(457.879 690)">quick_run</text><text fill="#0D0D0D" font-family="Consolas,Consolas_MSFontService,sans-serif" font-weight="400" font-size="21" transform="translate(562.879 690)">(‘</text><text fill="#579003" font-family="Consolas,Consolas_MSFontService,sans-serif" font-weight="400" font-size="21" transform="translate(586.213 690)">eval</text><text fill="#0D0D0D" font-family="Consolas,Consolas_MSFontService,sans-serif" font-weight="400" font-size="21" transform="translate(632.879 690)">’, ‘</text><text fill="#A41A27" font-family="Consolas,Consolas_MSFontService,sans-serif" font-weight="400" font-size="21" transform="translate(679.546 690)">d/noisy</text><text fill="#0D0D0D" font-family="Consolas,Consolas_MSFontService,sans-serif" font-weight="400" font-size="21" transform="translate(761.213 690)">’, ‘</text><text fill="#A41A27" font-family="Consolas,Consolas_MSFontService,sans-serif" font-weight="400" font-size="21" transform="translate(807.879 690)">demo</text><text fill="#0D0D0D" font-family="Consolas,Consolas_MSFontService,sans-serif" font-weight="400" font-size="21" transform="translate(854.546 690)">’)</text><path d="M584.5 579.667C584.5 572.395 590.395 566.5 597.667 566.5L776.417 566.5 776.417 566.5 858.667 566.5 900.333 566.5C907.605 566.5 913.5 572.395 913.5 579.667L913.5 612.583 913.5 612.583 913.5 632.334 913.5 632.333C913.5 639.605 907.605 645.5 900.333 645.5L858.667 645.5 780.114 673.036 776.417 645.5 597.667 645.5C590.395 645.5 584.5 639.605 584.5 632.333L584.5 632.334 584.5 612.583 584.5 612.583Z" stroke="#77101A" stroke-width="1.33333" stroke-miterlimit="8" fill="#A41A27" fill-rule="evenodd"/><text fill="#FFFFFF" font-family="Comfortaa,Comfortaa_MSFontService,sans-serif" font-weight="400" font-size="27" transform="translate(601.502 599)">Composition enables</text><text fill="#FFFFFF" font-family="Comfortaa,Comfortaa_MSFontService,sans-serif" font-weight="400" font-size="27" transform="translate(610.335 631)">modular config files</text><path d="M0 35.25 11.75 23.5001 11.75 29.375 106.375 29.375 106.375 11.75 100.5 11.75 112.25 0 124 11.75 118.125 11.75 118.125 41.125 11.75 41.125 11.75 47Z" stroke="#5C4357" stroke-width="1.33333" stroke-miterlimit="8" fill="#805E79" fill-rule="evenodd" transform="matrix(-1 0 0 1 326.5 646.5)"/><path d="M64.5001 675.5C64.5001 672.186 67.1864 669.5 70.5001 669.5L196.5 669.5C199.814 669.5 202.5 672.186 202.5 675.5L202.5 699.5C202.5 702.814 199.814 705.5 196.5 705.5L70.5001 705.5C67.1864 705.5 64.5001 702.814 64.5001 699.5Z" stroke="#805E79" stroke-width="1.33333" stroke-miterlimit="8" fill="#E7DEE5" fill-rule="evenodd"/><text fill="#5C2E4A" font-family="Comfortaa,Comfortaa_MSFontService,sans-serif" font-weight="400" font-size="24" transform="translate(75.0837 696)">see B2,B3</text><path d="M713.5 413.334C713.5 397.962 725.962 385.5 741.334 385.5L845.333 385.5 829.739 344.201 901.833 385.5 911.666 385.5C927.038 385.5 939.5 397.962 939.5 413.334L939.5 413.333 939.5 413.333 939.5 455.083 939.5 524.666C939.5 540.038 927.038 552.5 911.666 552.5L901.833 552.5 845.333 552.5 845.333 552.5 741.334 552.5C725.962 552.5 713.5 540.038 713.5 524.666L713.5 455.083 713.5 413.333 713.5 413.333Z" stroke="#77101A" stroke-width="1.33333" stroke-miterlimit="8" fill="#A41A27" fill-rule="evenodd"/><text fill="#FFFFFF" font-family="Comfortaa,Comfortaa_MSFontService,sans-serif" font-weight="400" font-size="27" transform="translate(759.778 413)">Note that</text><text fill="#FFFFFF" font-family="Comfortaa,Comfortaa_MSFontService,sans-serif" font-weight="400" font-size="27" transform="translate(734.278 445)">settings from</text><text fill="#FFFFFF" font-family="Consolas,Consolas_MSFontService,sans-serif" font-weight="400" font-size="27" transform="translate(762.778 477)">_base</text><text fill="#FFFFFF" font-family="Comfortaa,Comfortaa_MSFontService,sans-serif" font-weight="400" font-size="27" transform="translate(843.945 477)">get</text><text fill="#FFFFFF" font-family="Comfortaa,Comfortaa_MSFontService,sans-serif" font-weight="400" font-size="27" transform="translate(731.698 509)">inherited and</text><text fill="#FFFFFF" font-family="Comfortaa,Comfortaa_MSFontService,sans-serif" font-weight="400" font-size="27" transform="translate(766.112 541)">updated</text></g></svg>