<svg width="960" height="720" xmlns="http://www.w3.org/2000/svg" xmlns:xlink="http://www.w3.org/1999/xlink" overflow="hidden"><defs><clipPath id="clip0"><rect x="0" y="0" width="960" height="720"/></clipPath><linearGradient x1="480" y1="0" x2="480" y2="720" gradientUnits="userSpaceOnUse" spreadMethod="reflect" id="fill1"><stop offset="0" stop-color="#EBEAEA"/><stop offset="0.5" stop-color="#E4E3E3"/><stop offset="1" stop-color="#BCBBBB"/></linearGradient></defs><g clip-path="url(#clip0)"><rect x="0" y="0" width="960" height="720" fill="url(#fill1)"/><path d="M13.5001 465.196C13.5001 456.527 20.5273 449.5 29.1958 449.5L713.804 449.5C722.473 449.5 729.5 456.527 729.5 465.196L729.5 635.804C729.5 644.473 722.473 651.5 713.804 651.5L29.1958 651.5C20.5273 651.5 13.5001 644.473 13.5001 635.804Z" stroke="#070707" stroke-width="1.33333" stroke-miterlimit="8" fill="#0D0D0D" fill-rule="evenodd"/><path d="M25.5001 273.5C25.5001 268.53 29.5295 264.5 34.5 264.5L872.5 264.5C877.471 264.5 881.5 268.53 881.5 273.5L881.5 309.5C881.5 314.471 877.471 318.5 872.5 318.5L34.5 318.5C29.5295 318.5 25.5001 314.471 25.5001 309.5Z" stroke="#070707" stroke-width="1.33333" stroke-miterlimit="8" fill="#0D0D0D" fill-rule="evenodd"/><rect x="0" y="0" width="960" height="151" fill="#F1CEB0"/><path d="M0 148 960 148" stroke="#5C2E4A" stroke-width="8" stroke-miterlimit="8" fill="none" fill-rule="evenodd"/><path d="M0 0 52 0C80.7188-1.20948e-14 104 21.2665 104 47.5 104 73.7335 80.7188 95 52 95L0 95Z" fill="#5C2E4A" fill-rule="evenodd"/><text fill="#F1CEB0" font-family="Comfortaa,Comfortaa_MSFontService,sans-serif" font-weight="700" font-size="64" transform="translate(5.5999 73)">B2</text><text fill="#0D0D0D" font-family="Comfortaa,Comfortaa_MSFontService,sans-serif" font-weight="700" font-size="32" transform="translate(119.712 42)">Command</text><text fill="#0D0D0D" font-family="Comfortaa,Comfortaa_MSFontService,sans-serif" font-weight="700" font-size="32" transform="translate(292.712 42)">-</text><text fill="#0D0D0D" font-family="Comfortaa,Comfortaa_MSFontService,sans-serif" font-weight="700" font-size="32" transform="translate(305.212 42)">line interface</text><text fill="#0D0D0D" font-family="Comfortaa,Comfortaa_MSFontService,sans-serif" font-weight="400" font-size="32" transform="translate(533.878 42)">–</text><text fill="#0D0D0D" font-family="Comfortaa,Comfortaa_MSFontService,sans-serif" font-weight="400" font-size="32" transform="translate(555.712 42)">the</text><text fill="#0D0D0D" font-family="Consolas,Consolas_MSFontService,sans-serif" font-weight="400" font-size="32" transform="translate(619.212 42)">fig</text><text fill="#0D0D0D" font-family="Comfortaa,Comfortaa_MSFontService,sans-serif" font-weight="400" font-size="32" transform="translate(681.545 42)">command can</text><text fill="#0D0D0D" font-family="Comfortaa,Comfortaa_MSFontService,sans-serif" font-weight="400" font-size="32" transform="translate(119.712 81)">be used to run scripts using any composition of</text><text fill="#0D0D0D" font-family="Comfortaa,Comfortaa_MSFontService,sans-serif" font-weight="400" font-size="32" transform="translate(119.712 119)">config files + command</text><text fill="#0D0D0D" font-family="Comfortaa,Comfortaa_MSFontService,sans-serif" font-weight="400" font-size="32" transform="translate(504.045 119)">-</text><text fill="#0D0D0D" font-family="Comfortaa,Comfortaa_MSFontService,sans-serif" font-weight="400" font-size="32" transform="translate(516.545 119)">line arguments.</text><text fill="#E7E6E6" font-family="Consolas,Consolas_MSFontService,sans-serif" font-weight="400" font-size="37" transform="translate(44.9333 301)">$ fig</text><text fill="#74C004" font-family="Consolas,Consolas_MSFontService,sans-serif" font-weight="400" font-size="37" transform="translate(167.933 301)">&lt;script&gt;</text><text fill="#E55966" font-family="Consolas,Consolas_MSFontService,sans-serif" font-weight="400" font-size="37" transform="translate(352.433 301)">&lt;config&gt;...</text><text fill="#B56A97" font-family="Consolas,Consolas_MSFontService,sans-serif" font-weight="400" font-size="37" transform="translate(598.433 301)">--</text><text fill="#B56A97" font-family="Consolas,Consolas_MSFontService,sans-serif" font-weight="400" font-size="37" transform="translate(639.433 301)">&lt;</text><text fill="#B56A97" font-family="Consolas,Consolas_MSFontService,sans-serif" font-weight="400" font-size="37" transform="translate(659.933 301)">args</text><text fill="#B56A97" font-family="Consolas,Consolas_MSFontService,sans-serif" font-weight="400" font-size="37" transform="translate(741.933 301)">&gt;...</text><path d="M739.5 647.333C739.5 641.903 743.903 637.5 749.333 637.5L926.667 637.5C932.098 637.5 936.5 641.903 936.5 647.333L936.5 686.667C936.5 692.098 932.097 696.5 926.667 696.5L749.333 696.5C743.903 696.5 739.5 692.097 739.5 686.667Z" stroke="#070707" stroke-width="1.33333" stroke-miterlimit="8" fill="#0D0D0D" fill-rule="evenodd"/><text fill="#E7E6E6" font-family="Consolas,Consolas_MSFontService,sans-serif" font-weight="400" font-size="37" transform="translate(748.255 677)">$</text><text fill="#E7E6E6" font-family="Consolas,Consolas_MSFontService,sans-serif" font-weight="400" font-size="37" transform="translate(789.255 677)">fig</text><text fill="#00B0F0" font-family="Consolas,Consolas_MSFontService,sans-serif" font-weight="400" font-size="37" transform="translate(871.255 677)">-</text><text fill="#00B0F0" font-family="Consolas,Consolas_MSFontService,sans-serif" font-weight="400" font-size="37" transform="translate(891.755 677)">h</text><path d="M533.5 186C533.5 179.097 539.096 173.5 546 173.5L762.75 173.5 762.75 173.5 861 173.5 914 173.5C920.904 173.5 926.5 179.097 926.5 186L926.5 217.25 926.5 217.25 926.5 236 926.5 236C926.5 242.904 920.904 248.5 914 248.5L861 248.5 739.098 270.23 762.75 248.5 546 248.5C539.096 248.5 533.5 242.904 533.5 236L533.5 236 533.5 217.25 533.5 217.25Z" stroke="#77101A" stroke-width="1.33333" stroke-miterlimit="8" fill="#A41A27" fill-rule="evenodd"/><text fill="#FFFFFF" font-family="Comfortaa,Comfortaa_MSFontService,sans-serif" font-weight="400" font-size="27" transform="translate(625.263 204)">Optionally with</text><text fill="#FFFFFF" font-family="Comfortaa,Comfortaa_MSFontService,sans-serif" font-weight="400" font-size="27" transform="translate(550.843 236)">command</text><text fill="#FFFFFF" font-family="Comfortaa,Comfortaa_MSFontService,sans-serif" font-weight="400" font-size="27" transform="translate(690.177 236)">-</text><text fill="#FFFFFF" font-family="Comfortaa,Comfortaa_MSFontService,sans-serif" font-weight="400" font-size="27" transform="translate(700.677 236)">line arguments</text><text fill="#E7E6E6" font-family="Consolas,Consolas_MSFontService,sans-serif" font-weight="400" font-size="29" transform="translate(23.1193 487)">$</text><text fill="#E7E6E6" font-family="Consolas,Consolas_MSFontService,sans-serif" font-weight="400" font-size="29" transform="translate(55.4526 487)">fig</text><text fill="#74C004" font-family="Consolas,Consolas_MSFontService,sans-serif" font-weight="400" font-size="29" transform="translate(120.119 487)">train</text><text fill="#E55966" font-family="Consolas,Consolas_MSFontService,sans-serif" font-weight="400" font-size="29" transform="translate(217.119 487)">m/</text><text fill="#E55966" font-family="Consolas,Consolas_MSFontService,sans-serif" font-weight="400" font-size="29" transform="translate(249.453 487)">cnn</text><text fill="#E55966" font-family="Consolas,Consolas_MSFontService,sans-serif" font-weight="400" font-size="29" transform="translate(314.119 487)">d/</text><text fill="#E55966" font-family="Consolas,Consolas_MSFontService,sans-serif" font-weight="400" font-size="29" transform="translate(346.453 487)">mnist</text><text fill="#B56A97" font-family="Consolas,Consolas_MSFontService,sans-serif" font-weight="400" font-size="29" transform="translate(443.453 487)">--</text><text fill="#B56A97" font-family="Consolas,Consolas_MSFontService,sans-serif" font-weight="400" font-size="29" transform="translate(475.786 487)">act</text><text fill="#B56A97" font-family="Consolas,Consolas_MSFontService,sans-serif" font-weight="400" font-size="29" transform="translate(540.453 487)">relu</text><text fill="#E7E6E6" font-family="Consolas,Consolas_MSFontService,sans-serif" font-weight="400" font-size="29" transform="translate(23.1194 629)">$ fig</text><text fill="#74C004" font-family="Consolas,Consolas_MSFontService,sans-serif" font-weight="400" font-size="29" transform="translate(120.119 629)">launch</text><text fill="#E55966" font-family="Consolas,Consolas_MSFontService,sans-serif" font-weight="400" font-size="29" transform="translate(233.286 629)">safe</text><text fill="#E55966" font-family="Consolas,Consolas_MSFontService,sans-serif" font-weight="400" font-size="29" transform="translate(314.119 629)">db</text><text fill="#E55966" font-family="Consolas,Consolas_MSFontService,sans-serif" font-weight="400" font-size="29" transform="translate(346.453 629)">/</text><text fill="#E55966" font-family="Consolas,Consolas_MSFontService,sans-serif" font-weight="400" font-size="29" transform="translate(362.619 629)">mysql</text><text fill="#E55966" font-family="Consolas,Consolas_MSFontService,sans-serif" font-weight="400" font-size="29" transform="translate(459.619 629)">srv</text><text fill="#E55966" font-family="Consolas,Consolas_MSFontService,sans-serif" font-weight="400" font-size="29" transform="translate(508.119 629)">/</text><text fill="#E55966" font-family="Consolas,Consolas_MSFontService,sans-serif" font-weight="400" font-size="29" transform="translate(524.286 629)">dj</text><text fill="#B56A97" font-family="Consolas,Consolas_MSFontService,sans-serif" font-weight="400" font-size="29" transform="translate(572.786 629)">--</text><text fill="#B56A97" font-family="Consolas,Consolas_MSFontService,sans-serif" font-weight="400" font-size="29" transform="translate(605.119 629)">port=80</text><text fill="#E7E6E6" font-family="Consolas,Consolas_MSFontService,sans-serif" font-weight="400" font-size="29" transform="translate(23.1194 582)">$ fig</text><text fill="#74C004" font-family="Consolas,Consolas_MSFontService,sans-serif" font-weight="400" font-size="29" transform="translate(120.119 582)">publish</text><text fill="#E55966" font-family="Consolas,Consolas_MSFontService,sans-serif" font-weight="400" font-size="29" transform="translate(249.453 582)">update</text><text fill="#B56A97" font-family="Consolas,Consolas_MSFontService,sans-serif" font-weight="400" font-size="29" transform="translate(362.619 582)">--</text><text fill="#B56A97" font-family="Consolas,Consolas_MSFontService,sans-serif" font-weight="400" font-size="29" transform="translate(394.953 582)">sync</text><text fill="#B56A97" font-family="Consolas,Consolas_MSFontService,sans-serif" font-weight="400" font-size="29" transform="translate(475.786 582)">--</text><text fill="#B56A97" font-family="Consolas,Consolas_MSFontService,sans-serif" font-weight="400" font-size="29" transform="translate(508.119 582)">n</text><text fill="#B56A97" font-family="Consolas,Consolas_MSFontService,sans-serif" font-weight="400" font-size="29" transform="translate(524.286 582)">-</text><text fill="#B56A97" font-family="Consolas,Consolas_MSFontService,sans-serif" font-weight="400" font-size="29" transform="translate(540.453 582)">try 5</text><text fill="#E7E6E6" font-family="Consolas,Consolas_MSFontService,sans-serif" font-weight="400" font-size="29" transform="translate(23.1194 535)">$ fig</text><text fill="#74C004" font-family="Consolas,Consolas_MSFontService,sans-serif" font-weight="400" font-size="29" transform="translate(120.119 535)">eval</text><text fill="#E55966" font-family="Consolas,Consolas_MSFontService,sans-serif" font-weight="400" font-size="29" transform="translate(200.953 535)">m/</text><text fill="#E55966" font-family="Consolas,Consolas_MSFontService,sans-serif" font-weight="400" font-size="29" transform="translate(233.286 535)">cnn</text><text fill="#E55966" font-family="Consolas,Consolas_MSFontService,sans-serif" font-weight="400" font-size="29" transform="translate(297.953 535)">d/</text><text fill="#E55966" font-family="Consolas,Consolas_MSFontService,sans-serif" font-weight="400" font-size="29" transform="translate(330.286 535)">mnist</text><text fill="#B56A97" font-family="Consolas,Consolas_MSFontService,sans-serif" font-weight="400" font-size="29" transform="translate(427.286 535)">--</text><text fill="#B56A97" font-family="Consolas,Consolas_MSFontService,sans-serif" font-weight="400" font-size="29" transform="translate(459.619 535)">load ckpt10k</text><path d="M437.5 345.333C437.5 338.246 443.246 332.5 450.333 332.5L516.5 332.5 499.807 314.032 635 332.5 898.667 332.5C905.754 332.5 911.5 338.246 911.5 345.333L911.5 345.333 911.5 345.333 911.5 364.583 911.5 396.667C911.5 403.754 905.754 409.5 898.667 409.5L635 409.5 516.5 409.5 516.5 409.5 450.333 409.5C443.246 409.5 437.5 403.754 437.5 396.667L437.5 364.583 437.5 345.333 437.5 345.333Z" stroke="#77101A" stroke-width="1.33333" stroke-miterlimit="8" fill="#A41A27" fill-rule="evenodd"/><text fill="#FFFFFF" font-family="Comfortaa,Comfortaa_MSFontService,sans-serif" font-weight="400" font-size="27" transform="translate(456.643 364)">Including any number of config</text><text fill="#FFFFFF" font-family="Comfortaa,Comfortaa_MSFontService,sans-serif" font-weight="400" font-size="27" transform="translate(467.896 396)">file names that get composed</text><path d="M819.5 406.667C819.5 403.261 822.261 400.5 825.667 400.5L925.333 400.5C928.739 400.5 931.5 403.261 931.5 406.667L931.5 431.333C931.5 434.739 928.739 437.5 925.333 437.5L825.667 437.5C822.261 437.5 819.5 434.739 819.5 431.333Z" stroke="#805E79" stroke-width="1.33333" stroke-miterlimit="8" fill="#E7DEE5" fill-rule="evenodd"/><text fill="#5C2E4A" font-family="Comfortaa,Comfortaa_MSFontService,sans-serif" font-weight="400" font-size="27" transform="translate(829.272 428)">see B4</text><path d="M17.5001 205.167C17.5001 201.485 20.4848 198.5 24.1667 198.5L90.6667 198.5 90.6667 198.5 200.417 198.5 449.833 198.5C453.515 198.5 456.5 201.485 456.5 205.167L456.5 221.833 456.5 221.833 456.5 231.833 456.5 231.833C456.5 235.515 453.515 238.5 449.833 238.5L200.417 238.5 212.14 270.834 90.6667 238.5 24.1667 238.5C20.4848 238.5 17.5001 235.515 17.5001 231.833L17.5001 231.833 17.5001 221.833 17.5001 221.833Z" stroke="#77101A" stroke-width="1.33333" stroke-miterlimit="8" fill="#A41A27" fill-rule="evenodd"/><text fill="#FFFFFF" font-family="Comfortaa,Comfortaa_MSFontService,sans-serif" font-weight="400" font-size="27" transform="translate(37.593 227)">Specify any registered script</text><path d="M291.5 238.5C291.5 235.186 294.186 232.5 297.5 232.5L397.5 232.5C400.814 232.5 403.5 235.186 403.5 238.5L403.5 262.5C403.5 265.814 400.814 268.5 397.5 268.5L297.5 268.5C294.186 268.5 291.5 265.814 291.5 262.5Z" stroke="#805E79" stroke-width="1.33333" stroke-miterlimit="8" fill="#E7DEE5" fill-rule="evenodd"/><text fill="#5C2E4A" font-family="Comfortaa,Comfortaa_MSFontService,sans-serif" font-weight="400" font-size="27" transform="translate(302.541 260)">see B6</text><path d="M210.5 669.167C210.5 664.933 213.933 661.5 218.167 661.5L462.5 661.5 432.146 639.715 570.5 661.5 634.833 661.5C639.068 661.5 642.5 664.933 642.5 669.167L642.5 669.167 642.5 669.167 642.5 680.667 642.5 699.833C642.5 704.068 639.068 707.5 634.833 707.5L570.5 707.5 462.5 707.5 462.5 707.5 218.167 707.5C213.933 707.5 210.5 704.068 210.5 699.833L210.5 680.667 210.5 669.167 210.5 669.167Z" stroke="#77101A" stroke-width="1.33333" stroke-miterlimit="8" fill="#A41A27" fill-rule="evenodd"/><text fill="#FFFFFF" font-family="Comfortaa,Comfortaa_MSFontService,sans-serif" font-weight="400" font-size="27" transform="translate(224.307 693)">Note the modular config files</text><text fill="#0D0D0D" font-family="Comfortaa,Comfortaa_MSFontService,sans-serif" font-weight="400" font-size="27" transform="translate(40.4966 430)">A few example commands:</text><path d="M0 0 960 0 960 720 0 720ZM7.66824 7.66824 7.66824 712.332 952.332 712.332 952.332 7.66824Z" fill="#5C2E4A" fill-rule="evenodd"/><path d="M664.5 479.501C664.5 466.245 675.245 455.5 688.501 455.5L711.667 455.5 711.667 455.5 782.417 455.5 923.5 455.5C936.755 455.5 947.5 466.245 947.5 479.501L947.5 539.5 947.5 539.5 947.5 575.5 947.5 575.5C947.5 588.755 936.755 599.5 923.5 599.5L782.417 599.5 792.767 644.516 711.667 599.5 688.501 599.5C675.245 599.5 664.5 588.755 664.5 575.5L664.5 575.5 664.5 539.5 664.5 539.5Z" stroke="#77101A" stroke-width="1.33333" stroke-miterlimit="8" fill="#A41A27" fill-rule="evenodd"/><text fill="#FFFFFF" font-family="Comfortaa,Comfortaa_MSFontService,sans-serif" font-weight="400" font-size="27" transform="translate(680.629 488)">Try this command</text><text fill="#FFFFFF" font-family="Comfortaa,Comfortaa_MSFontService,sans-serif" font-weight="400" font-size="27" transform="translate(700.042 520)">to print out the</text><text fill="#FFFFFF" font-family="Comfortaa,Comfortaa_MSFontService,sans-serif" font-weight="400" font-size="27" transform="translate(693.295 552)">help message in</text><text fill="#FFFFFF" font-family="Comfortaa,Comfortaa_MSFontService,sans-serif" font-weight="400" font-size="27" transform="translate(726.629 584)">any project</text><path d="M820.5 600.667C820.5 597.261 823.261 594.5 826.667 594.5L926.333 594.5C929.739 594.5 932.5 597.261 932.5 600.667L932.5 625.333C932.5 628.739 929.739 631.5 926.333 631.5L826.667 631.5C823.261 631.5 820.5 628.739 820.5 625.333Z" stroke="#805E79" stroke-width="1.33333" stroke-miterlimit="8" fill="#E7DEE5" fill-rule="evenodd"/><text fill="#5C2E4A" font-family="Comfortaa,Comfortaa_MSFontService,sans-serif" font-weight="400" font-size="27" transform="translate(834.347 622)">see B1</text><text fill="#0D0D0D" font-family="Comfortaa,Comfortaa_MSFontService,sans-serif" font-weight="400" font-size="13" transform="translate(12.1546 709)">GitHub:</text><text fill="#520D13" font-family="Comfortaa,Comfortaa_MSFontService,sans-serif" font-weight="700" font-size="13" transform="translate(67.988 709)">felixludos</text><text fill="#520D13" font-family="Comfortaa,Comfortaa_MSFontService,sans-serif" font-weight="700" font-size="13" transform="translate(134.488 709)">/omni</text><text fill="#520D13" font-family="Comfortaa,Comfortaa_MSFontService,sans-serif" font-weight="700" font-size="13" transform="translate(175.321 709)">-</text><text fill="#520D13" font-family="Comfortaa,Comfortaa_MSFontService,sans-serif" font-weight="700" font-size="13" transform="translate(180.488 709)">fig</text></g></svg>