<svg width="960" height="720" xmlns="http://www.w3.org/2000/svg" xmlns:xlink="http://www.w3.org/1999/xlink" overflow="hidden"><defs><clipPath id="clip0"><rect x="0" y="0" width="960" height="720"/></clipPath><linearGradient x1="480" y1="0" x2="480" y2="720" gradientUnits="userSpaceOnUse" spreadMethod="reflect" id="fill1"><stop offset="0" stop-color="#EBEAEA"/><stop offset="0.5" stop-color="#E4E3E3"/><stop offset="1" stop-color="#BCBBBB"/></linearGradient><clipPath id="clip2"><rect x="13" y="170" width="31" height="31"/></clipPath><clipPath id="clip3"><rect x="13" y="170" width="31" height="31"/></clipPath><clipPath id="clip4"><rect x="13" y="170" width="31" height="31"/></clipPath><clipPath id="clip5"><rect x="217" y="282" width="30" height="31"/></clipPath><clipPath id="clip6"><rect x="217" y="282" width="30" height="31"/></clipPath><clipPath id="clip7"><rect x="217" y="282" width="30" height="31"/></clipPath><clipPath id="clip8"><rect x="84" y="206" width="30" height="30"/></clipPath><clipPath id="clip9"><rect x="84" y="206" width="30" height="30"/></clipPath><clipPath id="clip10"><rect x="84" y="206" width="30" height="30"/></clipPath><clipPath id="clip11"><rect x="155" y="243" width="30" height="31"/></clipPath><clipPath id="clip12"><rect x="155" y="243" width="30" height="31"/></clipPath><clipPath id="clip13"><rect x="155" y="243" width="30" height="31"/></clipPath><clipPath id="clip14"><rect x="217" y="320" width="30" height="30"/></clipPath><clipPath id="clip15"><rect x="217" y="320" width="30" height="30"/></clipPath><clipPath id="clip16"><rect x="217" y="320" width="30" height="30"/></clipPath><clipPath id="clip17"><rect x="145" y="359" width="30" height="30"/></clipPath><clipPath id="clip18"><rect x="145" y="359" width="30" height="30"/></clipPath><clipPath id="clip19"><rect x="145" y="359" width="30" height="30"/></clipPath><clipPath id="clip20"><rect x="145" y="396" width="30" height="30"/></clipPath><clipPath id="clip21"><rect x="145" y="396" width="30" height="30"/></clipPath><clipPath id="clip22"><rect x="145" y="396" width="30" height="30"/></clipPath><clipPath id="clip23"><rect x="145" y="473" width="30" height="31"/></clipPath><clipPath id="clip24"><rect x="145" y="473" width="30" height="31"/></clipPath><clipPath id="clip25"><rect x="145" y="473" width="30" height="31"/></clipPath><clipPath id="clip26"><rect x="145" y="511" width="30" height="30"/></clipPath><clipPath id="clip27"><rect x="145" y="511" width="30" height="30"/></clipPath><clipPath id="clip28"><rect x="145" y="511" width="30" height="30"/></clipPath><clipPath id="clip29"><rect x="145" y="549" width="30" height="30"/></clipPath><clipPath id="clip30"><rect x="145" y="549" width="30" height="30"/></clipPath><clipPath id="clip31"><rect x="145" y="549" width="30" height="30"/></clipPath><clipPath id="clip32"><rect x="75" y="589" width="30" height="30"/></clipPath><clipPath id="clip33"><rect x="75" y="589" width="30" height="30"/></clipPath><clipPath id="clip34"><rect x="75" y="589" width="30" height="30"/></clipPath><clipPath id="clip35"><rect x="75" y="626" width="30" height="30"/></clipPath><clipPath id="clip36"><rect x="75" y="626" width="30" height="30"/></clipPath><clipPath id="clip37"><rect x="75" y="626" width="30" height="30"/></clipPath><clipPath id="clip38"><rect x="84" y="436" width="30" height="30"/></clipPath><clipPath id="clip39"><rect x="84" y="436" width="30" height="30"/></clipPath><clipPath id="clip40"><rect x="84" y="436" width="30" height="30"/></clipPath></defs><g clip-path="url(#clip0)"><rect x="0" y="0" width="960" height="720" fill="url(#fill1)"/><rect x="0" y="0" width="960" height="151" fill="#F1CEB0"/><path d="M0 148 960 148" stroke="#5C2E4A" stroke-width="8" stroke-miterlimit="8" fill="none" fill-rule="evenodd"/><path d="M0 0 52 0C80.7188-1.20948e-14 104 21.2665 104 47.5 104 73.7335 80.7188 95 52 95L0 95Z" fill="#5C2E4A" fill-rule="evenodd"/><text fill="#F1CEB0" font-family="Comfortaa,Comfortaa_MSFontService,sans-serif" font-weight="700" font-size="64" transform="translate(5.5999 73)">B1</text><text fill="#0D0D0D" font-family="Comfortaa,Comfortaa_MSFontService,sans-serif" font-weight="700" font-size="32" transform="translate(108.894 45)">Project File Organization</text><text fill="#0D0D0D" font-family="Comfortaa,Comfortaa_MSFontService,sans-serif" font-weight="400" font-size="32" transform="translate(539.061 45)">–</text><text fill="#0D0D0D" font-family="Comfortaa,Comfortaa_MSFontService,sans-serif" font-weight="400" font-size="32" transform="translate(560.894 45)">here’s an example of</text><text fill="#0D0D0D" font-family="Comfortaa,Comfortaa_MSFontService,sans-serif" font-weight="400" font-size="32" transform="translate(108.894 84)">the file structure of a project using</text><text fill="#0D0D0D" font-family="Consolas,Consolas_MSFontService,sans-serif" font-weight="400" font-size="32" transform="translate(698.061 84)">omnifig</text><text fill="#0D0D0D" font-family="Comfortaa,Comfortaa_MSFontService,sans-serif" font-weight="400" font-size="32" transform="translate(831.061 84)">so that</text><text fill="#0D0D0D" font-family="Comfortaa,Comfortaa_MSFontService,sans-serif" font-weight="400" font-size="32" transform="translate(108.894 122)">source and config files get loaded automatically</text><path d="M346.5 629C346.5 620.992 352.992 614.5 361 614.5L446 614.5 446 614.5 595.25 614.5 929 614.5C937.008 614.5 943.5 620.992 943.5 629L943.5 629 943.5 629 943.5 650.75 943.5 687C943.5 695.008 937.008 701.5 929 701.5L595.25 701.5 446 701.5 446 701.5 361 701.5C352.992 701.5 346.5 695.008 346.5 687L346.5 650.75 300.561 624.536 346.5 629Z" stroke="#77101A" stroke-width="1.33333" stroke-miterlimit="8" fill="#A41A27" fill-rule="evenodd"/><text fill="#FFFFFF" font-family="Comfortaa,Comfortaa_MSFontService,sans-serif" font-weight="400" font-size="27" transform="translate(361.733 651)">The main directory must contain a YAML</text><text fill="#FFFFFF" font-family="Comfortaa,Comfortaa_MSFontService,sans-serif" font-weight="400" font-size="27" transform="translate(408.4 683)">file named “</text><text fill="#FFFFFF" font-family="Consolas,Consolas_MSFontService,sans-serif" font-weight="400" font-size="27" transform="translate(569.4 683)">.</text><text fill="#FFFFFF" font-family="Consolas,Consolas_MSFontService,sans-serif" font-weight="400" font-size="27" transform="translate(584.067 683)">omnifig.yaml</text><text fill="#FFFFFF" font-family="Comfortaa,Comfortaa_MSFontService,sans-serif" font-weight="400" font-size="27" transform="translate(760.067 683)">” like this</text><path d="M364.5 178.5C364.5 168.007 373.007 159.5 383.5 159.5L458 159.5 458 159.5 598.25 159.5 906.5 159.5C916.993 159.5 925.5 168.007 925.5 178.5L925.5 226 925.5 226 925.5 254.5 925.5 254.5C925.5 264.993 916.993 273.5 906.5 273.5L598.25 273.5 458 273.5 458 273.5 383.5 273.5C373.007 273.5 364.5 264.993 364.5 254.5L364.5 254.5 312.484 267.15 364.5 226Z" stroke="#77101A" stroke-width="1.33333" stroke-miterlimit="8" fill="#A41A27" fill-rule="evenodd"/><text fill="#FFFFFF" font-family="Comfortaa,Comfortaa_MSFontService,sans-serif" font-weight="400" font-size="27" transform="translate(437.82 193)">Any YAML files in the “</text><text fill="#FFFFFF" font-family="Consolas,Consolas_MSFontService,sans-serif" font-weight="400" font-size="27" transform="translate(741.153 193)">config/</text><text fill="#FFFFFF" font-family="Comfortaa,Comfortaa_MSFontService,sans-serif" font-weight="400" font-size="27" transform="translate(843.82 193)">”</text><text fill="#FFFFFF" font-family="Comfortaa,Comfortaa_MSFontService,sans-serif" font-weight="400" font-size="27" transform="translate(382.067 225)">directory are registered when loading</text><text fill="#FFFFFF" font-family="Comfortaa,Comfortaa_MSFontService,sans-serif" font-weight="400" font-size="27" transform="translate(391.9 257)">(e.g. “</text><text fill="#FFFFFF" font-family="Consolas,Consolas_MSFontService,sans-serif" font-weight="400" font-size="27" transform="translate(460.067 257)">myconfig1</text><text fill="#FFFFFF" font-family="Comfortaa,Comfortaa_MSFontService,sans-serif" font-weight="400" font-size="27" transform="translate(592.067 257)">” and “</text><text fill="#FFFFFF" font-family="Consolas,Consolas_MSFontService,sans-serif" font-weight="400" font-size="27" transform="translate(677.567 257)">dir1/myconfig2</text><text fill="#FFFFFF" font-family="Comfortaa,Comfortaa_MSFontService,sans-serif" font-weight="400" font-size="27" transform="translate(882.9 257)">”)</text><path d="M468.5 338.205C468.5 331.188 474.188 325.5 481.205 325.5L905.795 325.5C912.812 325.5 918.5 331.188 918.5 338.205L918.5 442.795C918.5 449.812 912.812 455.5 905.795 455.5L481.205 455.5C474.188 455.5 468.5 449.812 468.5 442.795Z" stroke="#BC776E" stroke-width="1.33333" stroke-miterlimit="8" fill="#FFA498" fill-rule="evenodd"/><path d="M468.5 329.5C468.5 325.634 471.634 322.5 475.5 322.5L911.5 322.5C915.366 322.5 918.5 325.634 918.5 329.5L918.5 357.5C918.5 361.366 915.366 364.5 911.5 364.5L475.5 364.5C471.634 364.5 468.5 361.366 468.5 357.5Z" stroke="#A41A27" stroke-width="1.33333" stroke-miterlimit="8" fill="#FF4A32" fill-rule="evenodd"/><text fill="#0D0D0D" font-family="Consolas,Consolas_MSFontService,sans-serif" font-weight="400" font-size="27" transform="translate(477.685 351)">.</text><text fill="#0D0D0D" font-family="Consolas,Consolas_MSFontService,sans-serif" font-weight="400" font-size="27" transform="translate(492.352 351)">omnifig.yaml</text><text fill="#601212" font-family="Consolas,Consolas_MSFontService,sans-serif" font-weight="400" font-size="27" transform="translate(486.937 403)">name:</text><text fill="#0D0D0D" font-family="Consolas,Consolas_MSFontService,sans-serif" font-weight="400" font-size="27" transform="translate(574.937 403)">my</text><text fill="#0D0D0D" font-family="Consolas,Consolas_MSFontService,sans-serif" font-weight="400" font-size="27" transform="translate(604.27 403)">-</text><text fill="#0D0D0D" font-family="Consolas,Consolas_MSFontService,sans-serif" font-weight="400" font-size="27" transform="translate(618.937 403)">project</text><text fill="#601212" font-family="Consolas,Consolas_MSFontService,sans-serif" font-weight="400" font-size="27" transform="translate(486.937 435)">module:</text><text fill="#0D0D0D" font-family="Consolas,Consolas_MSFontService,sans-serif" font-weight="400" font-size="27" transform="translate(604.27 435)">[</text><text fill="#579003" font-family="Consolas,Consolas_MSFontService,sans-serif" font-weight="400" font-size="27" transform="translate(618.937 435)">mymodule</text><text fill="#0D0D0D" font-family="Consolas,Consolas_MSFontService,sans-serif" font-weight="400" font-size="27" transform="translate(736.27 435)">,</text><text fill="#579003" font-family="Consolas,Consolas_MSFontService,sans-serif" font-weight="400" font-size="27" transform="translate(765.603 435)">myscript</text><text fill="#0D0D0D" font-family="Consolas,Consolas_MSFontService,sans-serif" font-weight="400" font-size="27" transform="translate(882.937 435)">]</text><path d="M405.5 509.001C405.5 500.992 411.992 494.5 420.001 494.5L487.667 494.5 632.956 452.578 610.917 494.5 884 494.5C892.008 494.5 898.5 500.992 898.5 509.001L898.5 509 898.5 509 898.5 530.75 898.5 567C898.5 575.008 892.008 581.5 884 581.5L610.917 581.5 487.667 581.5 487.667 581.5 420.001 581.5C411.992 581.5 405.5 575.008 405.5 567L405.5 530.75 405.5 509 405.5 509Z" stroke="#77101A" stroke-width="1.33333" stroke-miterlimit="8" fill="#A41A27" fill-rule="evenodd"/><text fill="#FFFFFF" font-family="Comfortaa,Comfortaa_MSFontService,sans-serif" font-weight="400" font-size="27" transform="translate(429.125 531)">You may specify any modules to</text><text fill="#FFFFFF" font-family="Comfortaa,Comfortaa_MSFontService,sans-serif" font-weight="400" font-size="27" transform="translate(428.705 563)">import when loading the project</text><text fill="#0D0D0D" font-family="Consolas,Consolas_MSFontService,sans-serif" font-weight="400" font-size="32" transform="translate(54.9067 192)">my</text><text fill="#0D0D0D" font-family="Consolas,Consolas_MSFontService,sans-serif" font-weight="400" font-size="32" transform="translate(90.24 192)">project/</text><text fill="#0D0D0D" font-family="Consolas,Consolas_MSFontService,sans-serif" font-weight="400" font-size="32" transform="translate(19.5733 231)">├──</text><text fill="#0D0D0D" font-family="Consolas,Consolas_MSFontService,sans-serif" font-weight="400" font-size="32" transform="translate(125.573 231)">config</text><text fill="#0D0D0D" font-family="Consolas,Consolas_MSFontService,sans-serif" font-weight="400" font-size="32" transform="translate(231.573 231)">/</text><text fill="#0D0D0D" font-family="Consolas,Consolas_MSFontService,sans-serif" font-weight="400" font-size="32" transform="translate(19.5733 269)">│</text><text fill="#0D0D0D" font-family="Consolas,Consolas_MSFontService,sans-serif" font-weight="400" font-size="32" transform="translate(90.24 269)">├──</text><text fill="#0D0D0D" font-family="Consolas,Consolas_MSFontService,sans-serif" font-weight="400" font-size="32" transform="translate(196.24 269)">dir1/</text><text fill="#0D0D0D" font-family="Consolas,Consolas_MSFontService,sans-serif" font-weight="400" font-size="32" transform="translate(19.5733 307)">│</text><text fill="#0D0D0D" font-family="Consolas,Consolas_MSFontService,sans-serif" font-weight="400" font-size="32" transform="translate(90.24 307)">│</text><text fill="#0D0D0D" font-family="Consolas,Consolas_MSFontService,sans-serif" font-weight="400" font-size="32" transform="translate(160.907 307)">├──</text><text fill="#0D0D0D" font-family="Consolas,Consolas_MSFontService,sans-serif" font-weight="400" font-size="32" transform="translate(249.24 307)">myconfig2.yaml</text><text fill="#0D0D0D" font-family="Consolas,Consolas_MSFontService,sans-serif" font-weight="400" font-size="32" transform="translate(19.5733 346)">│</text><text fill="#0D0D0D" font-family="Consolas,Consolas_MSFontService,sans-serif" font-weight="400" font-size="32" transform="translate(90.24 346)">│</text><text fill="#0D0D0D" font-family="Consolas,Consolas_MSFontService,sans-serif" font-weight="400" font-size="32" transform="translate(160.907 346)">└──</text><text fill="#0D0D0D" font-family="Consolas,Consolas_MSFontService,sans-serif" font-weight="400" font-size="32" transform="translate(249.24 346)">...</text><text fill="#0D0D0D" font-family="Consolas,Consolas_MSFontService,sans-serif" font-weight="400" font-size="32" transform="translate(19.5733 384)">│</text><text fill="#0D0D0D" font-family="Consolas,Consolas_MSFontService,sans-serif" font-weight="400" font-size="32" transform="translate(90.24 384)">├──</text><text fill="#0D0D0D" font-family="Consolas,Consolas_MSFontService,sans-serif" font-weight="400" font-size="32" transform="translate(178.573 384)">myconfig1.yaml</text><text fill="#0D0D0D" font-family="Consolas,Consolas_MSFontService,sans-serif" font-weight="400" font-size="32" transform="translate(19.5733 423)">│</text><text fill="#0D0D0D" font-family="Consolas,Consolas_MSFontService,sans-serif" font-weight="400" font-size="32" transform="translate(90.24 423)">└──</text><text fill="#0D0D0D" font-family="Consolas,Consolas_MSFontService,sans-serif" font-weight="400" font-size="32" transform="translate(178.573 423)">debug.yaml</text><text fill="#0D0D0D" font-family="Consolas,Consolas_MSFontService,sans-serif" font-weight="400" font-size="32" transform="translate(19.5733 461)">├──</text><text fill="#579003" font-family="Consolas,Consolas_MSFontService,sans-serif" font-weight="400" font-size="32" transform="translate(125.573 461)">mymodule</text><text fill="#0D0D0D" font-family="Consolas,Consolas_MSFontService,sans-serif" font-weight="400" font-size="32" transform="translate(266.907 461)">/</text><text fill="#0D0D0D" font-family="Consolas,Consolas_MSFontService,sans-serif" font-weight="400" font-size="32" transform="translate(19.5733 499)">│</text><text fill="#0D0D0D" font-family="Consolas,Consolas_MSFontService,sans-serif" font-weight="400" font-size="32" transform="translate(90.24 499)">├──</text><text fill="#0D0D0D" font-family="Consolas,Consolas_MSFontService,sans-serif" font-weight="400" font-size="32" transform="translate(178.573 499)">__init__.py</text><text fill="#0D0D0D" font-family="Consolas,Consolas_MSFontService,sans-serif" font-weight="400" font-size="32" transform="translate(19.5733 538)">│</text><text fill="#0D0D0D" font-family="Consolas,Consolas_MSFontService,sans-serif" font-weight="400" font-size="32" transform="translate(90.24 538)">├──</text><text fill="#0D0D0D" font-family="Consolas,Consolas_MSFontService,sans-serif" font-weight="400" font-size="32" transform="translate(178.573 538)">mycode</text><text fill="#0D0D0D" font-family="Consolas,Consolas_MSFontService,sans-serif" font-weight="400" font-size="32" transform="translate(284.573 538)">.</text><text fill="#0D0D0D" font-family="Consolas,Consolas_MSFontService,sans-serif" font-weight="400" font-size="32" transform="translate(302.24 538)">py</text><text fill="#0D0D0D" font-family="Consolas,Consolas_MSFontService,sans-serif" font-weight="400" font-size="32" transform="translate(19.5733 576)">│</text><text fill="#0D0D0D" font-family="Consolas,Consolas_MSFontService,sans-serif" font-weight="400" font-size="32" transform="translate(90.24 576)">└──</text><text fill="#0D0D0D" font-family="Consolas,Consolas_MSFontService,sans-serif" font-weight="400" font-size="32" transform="translate(178.573 576)">...</text><text fill="#0D0D0D" font-family="Consolas,Consolas_MSFontService,sans-serif" font-weight="400" font-size="32" transform="translate(19.5733 615)">├──</text><text fill="#0D0D0D" font-family="Consolas,Consolas_MSFontService,sans-serif" font-weight="400" font-size="32" transform="translate(107.907 615)">.</text><text fill="#0D0D0D" font-family="Consolas,Consolas_MSFontService,sans-serif" font-weight="400" font-size="32" transform="translate(125.573 615)">omnifig.yaml</text><text fill="#0D0D0D" font-family="Consolas,Consolas_MSFontService,sans-serif" font-weight="400" font-size="32" transform="translate(19.5733 653)">├──</text><text fill="#579003" font-family="Consolas,Consolas_MSFontService,sans-serif" font-weight="400" font-size="32" transform="translate(107.907 653)">myscript</text><text fill="#0D0D0D" font-family="Consolas,Consolas_MSFontService,sans-serif" font-weight="400" font-size="32" transform="translate(249.24 653)">.py</text><text fill="#0D0D0D" font-family="Consolas,Consolas_MSFontService,sans-serif" font-weight="400" font-size="32" transform="translate(19.5733 691)">└──</text><text fill="#0D0D0D" font-family="Consolas,Consolas_MSFontService,sans-serif" font-weight="400" font-size="32" transform="translate(107.907 691)">...</text><g clip-path="url(#clip2)"><g clip-path="url(#clip3)"><g clip-path="url(#clip4)"><path d="M39.1562 194.542 17.8438 194.542C17.1333 194.542 16.5521 193.96 16.5521 193.25L16.5521 177.75C16.5521 177.04 17.1333 176.458 17.8438 176.458L23.9146 176.458C24.1729 176.458 24.4313 176.523 24.625 176.684L28.1771 179.042 39.1562 179.042C39.8667 179.042 40.4479 179.623 40.4479 180.333L40.4479 193.25C40.4479 193.96 39.8667 194.542 39.1562 194.542Z"/></g></g></g><g clip-path="url(#clip5)"><g clip-path="url(#clip6)"><g clip-path="url(#clip7)"><path d="M7.1875 25.625 7.1875 4.375 15 4.375 15 10.9375 22.8125 10.9375 22.8125 25.625 7.1875 25.625ZM16.875 5.15625 20.7812 9.0625 16.875 9.0625 16.875 5.15625ZM16.875 2.5 5.3125 2.5 5.3125 27.5 24.6875 27.5 24.6875 9.375 16.875 2.5Z" transform="matrix(1 0 0 1.03333 217 282)"/><path d="M9.0625 14.0625 20.9375 14.0625 20.9375 15.3125 9.0625 15.3125Z" transform="matrix(1 0 0 1.03333 217 282)"/><path d="M9.0625 11.5625 13.125 11.5625 13.125 12.8125 9.0625 12.8125Z" transform="matrix(1 0 0 1.03333 217 282)"/><path d="M9.0625 16.5625 20.9375 16.5625 20.9375 17.8125 9.0625 17.8125Z" transform="matrix(1 0 0 1.03333 217 282)"/><path d="M9.0625 19.0625 20.9375 19.0625 20.9375 20.3125 9.0625 20.3125Z" transform="matrix(1 0 0 1.03333 217 282)"/><path d="M9.0625 21.5625 20.9375 21.5625 20.9375 22.8125 9.0625 22.8125Z" transform="matrix(1 0 0 1.03333 217 282)"/></g></g></g><g clip-path="url(#clip8)"><g clip-path="url(#clip9)"><g clip-path="url(#clip10)"><path d="M109.312 229.75 88.6875 229.75C88 229.75 87.4375 229.188 87.4375 228.5L87.4375 213.5C87.4375 212.812 88 212.25 88.6875 212.25L94.5625 212.25C94.8125 212.25 95.0625 212.312 95.25 212.469L98.6875 214.75 109.312 214.75C110 214.75 110.562 215.312 110.562 216L110.562 228.5C110.562 229.188 110 229.75 109.312 229.75Z"/></g></g></g><g clip-path="url(#clip11)"><g clip-path="url(#clip12)"><g clip-path="url(#clip13)"><path d="M25.3125 23.75 4.6875 23.75C4 23.75 3.4375 23.1875 3.4375 22.5L3.4375 7.5C3.4375 6.8125 4 6.25 4.6875 6.25L10.5625 6.25C10.8125 6.25 11.0625 6.3125 11.25 6.46875L14.6875 8.75 25.3125 8.75C26 8.75 26.5625 9.3125 26.5625 10L26.5625 22.5C26.5625 23.1875 26 23.75 25.3125 23.75Z" transform="matrix(1 0 0 1.03333 155 243)"/></g></g></g><g clip-path="url(#clip14)"><g clip-path="url(#clip15)"><g clip-path="url(#clip16)"><path d="M224.188 345.625 224.188 324.375 232 324.375 232 330.938 239.812 330.938 239.812 345.625 224.188 345.625ZM233.875 325.156 237.781 329.062 233.875 329.062 233.875 325.156ZM233.875 322.5 222.312 322.5 222.312 347.5 241.688 347.5 241.688 329.375 233.875 322.5Z"/><path d="M226.062 334.062 237.938 334.062 237.938 335.312 226.062 335.312Z"/><path d="M226.062 331.562 230.125 331.562 230.125 332.812 226.062 332.812Z"/><path d="M226.062 336.562 237.938 336.562 237.938 337.812 226.062 337.812Z"/><path d="M226.062 339.062 237.938 339.062 237.938 340.312 226.062 340.312Z"/><path d="M226.062 341.562 237.938 341.562 237.938 342.812 226.062 342.812Z"/></g></g></g><g clip-path="url(#clip17)"><g clip-path="url(#clip18)"><g clip-path="url(#clip19)"><path d="M152.188 384.625 152.188 363.375 160 363.375 160 369.938 167.812 369.938 167.812 384.625 152.188 384.625ZM161.875 364.156 165.781 368.062 161.875 368.062 161.875 364.156ZM161.875 361.5 150.312 361.5 150.312 386.5 169.688 386.5 169.688 368.375 161.875 361.5Z"/><path d="M154.062 373.062 165.938 373.062 165.938 374.312 154.062 374.312Z"/><path d="M154.062 370.562 158.125 370.562 158.125 371.812 154.062 371.812Z"/><path d="M154.062 375.562 165.938 375.562 165.938 376.812 154.062 376.812Z"/><path d="M154.062 378.062 165.938 378.062 165.938 379.312 154.062 379.312Z"/><path d="M154.062 380.562 165.938 380.562 165.938 381.812 154.062 381.812Z"/></g></g></g><g clip-path="url(#clip20)"><g clip-path="url(#clip21)"><g clip-path="url(#clip22)"><path d="M152.188 421.625 152.188 400.375 160 400.375 160 406.938 167.812 406.938 167.812 421.625 152.188 421.625ZM161.875 401.156 165.781 405.062 161.875 405.062 161.875 401.156ZM161.875 398.5 150.312 398.5 150.312 423.5 169.688 423.5 169.688 405.375 161.875 398.5Z"/><path d="M154.062 410.062 165.938 410.062 165.938 411.312 154.062 411.312Z"/><path d="M154.062 407.562 158.125 407.562 158.125 408.812 154.062 408.812Z"/><path d="M154.062 412.562 165.938 412.562 165.938 413.812 154.062 413.812Z"/><path d="M154.062 415.062 165.938 415.062 165.938 416.312 154.062 416.312Z"/><path d="M154.062 417.562 165.938 417.562 165.938 418.812 154.062 418.812Z"/></g></g></g><g clip-path="url(#clip23)"><g clip-path="url(#clip24)"><g clip-path="url(#clip25)"><path d="M7.1875 25.625 7.1875 4.375 15 4.375 15 10.9375 22.8125 10.9375 22.8125 25.625 7.1875 25.625ZM16.875 5.15625 20.7812 9.0625 16.875 9.0625 16.875 5.15625ZM16.875 2.5 5.3125 2.5 5.3125 27.5 24.6875 27.5 24.6875 9.375 16.875 2.5Z" transform="matrix(1 0 0 1.03333 145 473)"/><path d="M9.0625 14.0625 20.9375 14.0625 20.9375 15.3125 9.0625 15.3125Z" transform="matrix(1 0 0 1.03333 145 473)"/><path d="M9.0625 11.5625 13.125 11.5625 13.125 12.8125 9.0625 12.8125Z" transform="matrix(1 0 0 1.03333 145 473)"/><path d="M9.0625 16.5625 20.9375 16.5625 20.9375 17.8125 9.0625 17.8125Z" transform="matrix(1 0 0 1.03333 145 473)"/><path d="M9.0625 19.0625 20.9375 19.0625 20.9375 20.3125 9.0625 20.3125Z" transform="matrix(1 0 0 1.03333 145 473)"/><path d="M9.0625 21.5625 20.9375 21.5625 20.9375 22.8125 9.0625 22.8125Z" transform="matrix(1 0 0 1.03333 145 473)"/></g></g></g><g clip-path="url(#clip26)"><g clip-path="url(#clip27)"><g clip-path="url(#clip28)"><path d="M152.188 536.625 152.188 515.375 160 515.375 160 521.938 167.812 521.938 167.812 536.625 152.188 536.625ZM161.875 516.156 165.781 520.062 161.875 520.062 161.875 516.156ZM161.875 513.5 150.312 513.5 150.312 538.5 169.688 538.5 169.688 520.375 161.875 513.5Z"/><path d="M154.062 525.062 165.938 525.062 165.938 526.312 154.062 526.312Z"/><path d="M154.062 522.562 158.125 522.562 158.125 523.812 154.062 523.812Z"/><path d="M154.062 527.562 165.938 527.562 165.938 528.812 154.062 528.812Z"/><path d="M154.062 530.062 165.938 530.062 165.938 531.312 154.062 531.312Z"/><path d="M154.062 532.562 165.938 532.562 165.938 533.812 154.062 533.812Z"/></g></g></g><g clip-path="url(#clip29)"><g clip-path="url(#clip30)"><g clip-path="url(#clip31)"><path d="M152.188 574.625 152.188 553.375 160 553.375 160 559.938 167.812 559.938 167.812 574.625 152.188 574.625ZM161.875 554.156 165.781 558.062 161.875 558.062 161.875 554.156ZM161.875 551.5 150.312 551.5 150.312 576.5 169.688 576.5 169.688 558.375 161.875 551.5Z"/><path d="M154.062 563.062 165.938 563.062 165.938 564.312 154.062 564.312Z"/><path d="M154.062 560.562 158.125 560.562 158.125 561.812 154.062 561.812Z"/><path d="M154.062 565.562 165.938 565.562 165.938 566.812 154.062 566.812Z"/><path d="M154.062 568.062 165.938 568.062 165.938 569.312 154.062 569.312Z"/><path d="M154.062 570.562 165.938 570.562 165.938 571.812 154.062 571.812Z"/></g></g></g><g clip-path="url(#clip32)"><g clip-path="url(#clip33)"><g clip-path="url(#clip34)"><path d="M82.1875 614.625 82.1875 593.375 90 593.375 90 599.938 97.8125 599.938 97.8125 614.625 82.1875 614.625ZM91.875 594.156 95.7812 598.062 91.875 598.062 91.875 594.156ZM91.875 591.5 80.3125 591.5 80.3125 616.5 99.6875 616.5 99.6875 598.375 91.875 591.5Z"/><path d="M84.0625 603.062 95.9375 603.062 95.9375 604.312 84.0625 604.312Z"/><path d="M84.0625 600.562 88.125 600.562 88.125 601.812 84.0625 601.812Z"/><path d="M84.0625 605.562 95.9375 605.562 95.9375 606.812 84.0625 606.812Z"/><path d="M84.0625 608.062 95.9375 608.062 95.9375 609.312 84.0625 609.312Z"/><path d="M84.0625 610.562 95.9375 610.562 95.9375 611.812 84.0625 611.812Z"/></g></g></g><g clip-path="url(#clip35)"><g clip-path="url(#clip36)"><g clip-path="url(#clip37)"><path d="M82.1875 651.625 82.1875 630.375 90 630.375 90 636.938 97.8125 636.938 97.8125 651.625 82.1875 651.625ZM91.875 631.156 95.7812 635.062 91.875 635.062 91.875 631.156ZM91.875 628.5 80.3125 628.5 80.3125 653.5 99.6875 653.5 99.6875 635.375 91.875 628.5Z"/><path d="M84.0625 640.062 95.9375 640.062 95.9375 641.312 84.0625 641.312Z"/><path d="M84.0625 637.562 88.125 637.562 88.125 638.812 84.0625 638.812Z"/><path d="M84.0625 642.562 95.9375 642.562 95.9375 643.812 84.0625 643.812Z"/><path d="M84.0625 645.062 95.9375 645.062 95.9375 646.312 84.0625 646.312Z"/><path d="M84.0625 647.562 95.9375 647.562 95.9375 648.812 84.0625 648.812Z"/></g></g></g><g clip-path="url(#clip38)"><g clip-path="url(#clip39)"><g clip-path="url(#clip40)"><path d="M109.312 459.75 88.6875 459.75C88 459.75 87.4375 459.188 87.4375 458.5L87.4375 443.5C87.4375 442.812 88 442.25 88.6875 442.25L94.5625 442.25C94.8125 442.25 95.0625 442.312 95.25 442.469L98.6875 444.75 109.312 444.75C110 444.75 110.562 445.312 110.562 446L110.562 458.5C110.562 459.188 110 459.75 109.312 459.75Z"/></g></g></g><path d="M0 0 960 0 960 720 0 720ZM7.66824 7.66824 7.66824 712.332 952.332 712.332 952.332 7.66824Z" fill="#5C2E4A" fill-rule="evenodd"/></g></svg>