<svg width="960" height="720" xmlns="http://www.w3.org/2000/svg" xmlns:xlink="http://www.w3.org/1999/xlink" overflow="hidden"><defs><clipPath id="clip0"><rect x="0" y="0" width="960" height="720"/></clipPath><linearGradient x1="480" y1="0" x2="480" y2="720" gradientUnits="userSpaceOnUse" spreadMethod="reflect" id="fill1"><stop offset="0" stop-color="#EBEAEA"/><stop offset="0.5" stop-color="#E4E3E3"/><stop offset="1" stop-color="#BCBBBB"/></linearGradient></defs><g clip-path="url(#clip0)"><rect x="0" y="0" width="960" height="720" fill="url(#fill1)"/><rect x="0" y="0" width="960" height="151" fill="#F1CEB0"/><path d="M0 148 960 148" stroke="#5C2E4A" stroke-width="8" stroke-miterlimit="8" fill="none" fill-rule="evenodd"/><path d="M0 0 52 0C80.7188-1.20948e-14 104 21.2665 104 47.5 104 73.7335 80.7188 95 52 95L0 95Z" fill="#5C2E4A" fill-rule="evenodd"/><text fill="#F1CEB0" font-family="Comfortaa,Comfortaa_MSFontService,sans-serif" font-weight="700" font-size="64" transform="translate(5.5999 73)">B6</text><text fill="#0D0D0D" font-family="Comfortaa,Comfortaa_MSFontService,sans-serif" font-weight="700" font-size="32" transform="translate(119.712 42)">Registering Scripts, Components, &amp; Modifiers</text><text fill="#0D0D0D" font-family="Comfortaa,Comfortaa_MSFontService,sans-serif" font-weight="400" font-size="32" transform="translate(880.878 42)">–</text><text fill="#0D0D0D" font-family="Comfortaa,Comfortaa_MSFontService,sans-serif" font-weight="400" font-size="32" transform="translate(119.712 81)">using the provided decorators all important</text><text fill="#0D0D0D" font-family="Comfortaa,Comfortaa_MSFontService,sans-serif" font-weight="400" font-size="32" transform="translate(119.712 119)">functions and classes are loaded automatically</text><path d="M0 0 960 0 960 720 0 720ZM7.66824 7.66824 7.66824 712.332 952.332 712.332 952.332 7.66824Z" fill="#5C2E4A" fill-rule="evenodd"/><path d="M461.5 175.231C461.5 167.647 467.647 161.5 475.231 161.5L937.769 161.5C945.353 161.5 951.5 167.647 951.5 175.231L951.5 330.769C951.5 338.353 945.353 344.5 937.769 344.5L475.231 344.5C467.647 344.5 461.5 338.353 461.5 330.769Z" stroke="#5C4357" stroke-width="1.33333" stroke-miterlimit="8" fill="#E6CDDC" fill-rule="evenodd"/><text fill="#0D0D0D" font-family="Consolas,Consolas_MSFontService,sans-serif" font-weight="400" font-size="24" transform="translate(469.127 189)">import</text><text fill="#0D0D0D" font-family="Consolas,Consolas_MSFontService,sans-serif" font-weight="400" font-size="24" transform="translate(561.294 189)">omnifig</text><text fill="#0D0D0D" font-family="Consolas,Consolas_MSFontService,sans-serif" font-weight="400" font-size="24" transform="translate(666.627 189)">as fig</text><text fill="#0D0D0D" font-family="Consolas,Consolas_MSFontService,sans-serif" font-weight="400" font-size="24" transform="translate(469.127 246)">@fig.</text><text fill="#7B131D" font-family="Consolas,Consolas_MSFontService,sans-serif" font-weight="400" font-size="24" transform="translate(534.961 246)">script</text><text fill="#0D0D0D" font-family="Consolas,Consolas_MSFontService,sans-serif" font-weight="400" font-size="24" transform="translate(613.961 246)">(‘</text><text fill="#579003" font-family="Consolas,Consolas_MSFontService,sans-serif" font-weight="400" font-size="24" transform="translate(640.294 246)">myscript</text><text fill="#0D0D0D" font-family="Consolas,Consolas_MSFontService,sans-serif" font-weight="400" font-size="24" transform="translate(745.627 246)">’)</text><text fill="#0D0D0D" font-family="Consolas,Consolas_MSFontService,sans-serif" font-weight="400" font-size="24" transform="translate(469.127 275)">def</text><text fill="#0D0D0D" font-family="Consolas,Consolas_MSFontService,sans-serif" font-weight="400" font-size="24" transform="translate(521.794 275)">some_script</text><text fill="#0D0D0D" font-family="Consolas,Consolas_MSFontService,sans-serif" font-weight="400" font-size="24" transform="translate(666.627 275)">(</text><text fill="#0D0D0D" font-family="Consolas,Consolas_MSFontService,sans-serif" font-weight="400" font-size="24" transform="translate(679.794 275)">cfg</text><text fill="#0D0D0D" font-family="Consolas,Consolas_MSFontService,sans-serif" font-weight="400" font-size="24" transform="translate(719.294 275)">):</text><text fill="#0D0D0D" font-family="Consolas,Consolas_MSFontService,sans-serif" font-weight="400" font-size="24" transform="translate(495.461 304)">value =</text><text fill="#0D0D0D" font-family="Consolas,Consolas_MSFontService,sans-serif" font-weight="400" font-size="24" transform="translate(600.794 304)">cfg.</text><text fill="#3B3838" font-family="Consolas,Consolas_MSFontService,sans-serif" font-weight="400" font-size="24" transform="translate(653.461 304)">pull</text><text fill="#0D0D0D" font-family="Consolas,Consolas_MSFontService,sans-serif" font-weight="400" font-size="24" transform="translate(706.127 304)">(‘</text><text fill="#5C2E4A" font-family="Consolas,Consolas_MSFontService,sans-serif" font-weight="400" font-size="24" transform="translate(732.461 304)">key</text><text fill="#0D0D0D" font-family="Consolas,Consolas_MSFontService,sans-serif" font-weight="400" font-size="24" transform="translate(771.961 304)">’, ‘default’)</text><text fill="#0D0D0D" font-family="Consolas,Consolas_MSFontService,sans-serif" font-weight="400" font-size="24" transform="translate(495.461 333)">return ‘output’</text><path d="M17.5001 310.59C17.5001 305.017 22.0173 300.5 27.5896 300.5L473.411 300.5C478.983 300.5 483.5 305.017 483.5 310.59L483.5 595.411C483.5 600.983 478.983 605.5 473.411 605.5L27.5896 605.5C22.0173 605.5 17.5001 600.983 17.5001 595.411Z" stroke="#5C4357" stroke-width="1.33333" stroke-miterlimit="8" fill="#E6CDDC" fill-rule="evenodd"/><text fill="#0D0D0D" font-family="Consolas,Consolas_MSFontService,sans-serif" font-weight="400" font-size="24" transform="translate(24.8375 327)">@fig.</text><text fill="#7B131D" font-family="Consolas,Consolas_MSFontService,sans-serif" font-weight="400" font-size="24" transform="translate(90.6708 327)">component</text><text fill="#0D0D0D" font-family="Consolas,Consolas_MSFontService,sans-serif" font-weight="400" font-size="24" transform="translate(209.171 327)">(‘</text><text fill="#579003" font-family="Consolas,Consolas_MSFontService,sans-serif" font-weight="400" font-size="24" transform="translate(235.504 327)">good</text><text fill="#0D0D0D" font-family="Consolas,Consolas_MSFontService,sans-serif" font-weight="400" font-size="24" transform="translate(288.171 327)">’)</text><text fill="#0D0D0D" font-family="Consolas,Consolas_MSFontService,sans-serif" font-weight="400" font-size="24" transform="translate(24.8375 355)">class</text><text fill="#0D0D0D" font-family="Consolas,Consolas_MSFontService,sans-serif" font-weight="400" font-size="24" transform="translate(103.837 355)">Much_Cool</text><text fill="#0D0D0D" font-family="Consolas,Consolas_MSFontService,sans-serif" font-weight="400" font-size="24" transform="translate(222.337 355)">(</text><text fill="#0D0D0D" font-family="Consolas,Consolas_MSFontService,sans-serif" font-weight="400" font-size="24" transform="translate(235.504 355)">fig.</text><text fill="#FF4A32" font-family="Consolas,Consolas_MSFontService,sans-serif" font-weight="400" font-size="24" transform="translate(288.171 355)">Configurable</text><text fill="#0D0D0D" font-family="Consolas,Consolas_MSFontService,sans-serif" font-weight="400" font-size="24" transform="translate(446.171 355)">):</text><text fill="#0D0D0D" font-family="Consolas,Consolas_MSFontService,sans-serif" font-weight="400" font-size="24" transform="translate(51.1708 384)">def __</text><text fill="#0D0D0D" font-family="Consolas,Consolas_MSFontService,sans-serif" font-weight="400" font-size="24" transform="translate(130.171 384)">init</text><text fill="#0D0D0D" font-family="Consolas,Consolas_MSFontService,sans-serif" font-weight="400" font-size="24" transform="translate(182.837 384)">__(self,</text><text fill="#5C2E4A" font-family="Consolas,Consolas_MSFontService,sans-serif" font-weight="400" font-size="24" transform="translate(301.337 384)">req</text><text fill="#0D0D0D" font-family="Consolas,Consolas_MSFontService,sans-serif" font-weight="400" font-size="24" transform="translate(340.837 384)">,</text><text fill="#5C2E4A" font-family="Consolas,Consolas_MSFontService,sans-serif" font-weight="400" font-size="24" transform="translate(367.171 384)">opt</text><text fill="#0D0D0D" font-family="Consolas,Consolas_MSFontService,sans-serif" font-weight="400" font-size="24" transform="translate(406.671 384)">=10):</text><text fill="#0D0D0D" font-family="Consolas,Consolas_MSFontService,sans-serif" font-weight="400" font-size="24" transform="translate(77.5042 413)">self.x</text><text fill="#0D0D0D" font-family="Consolas,Consolas_MSFontService,sans-serif" font-weight="400" font-size="24" transform="translate(169.671 413)">=</text><text fill="#5C2E4A" font-family="Consolas,Consolas_MSFontService,sans-serif" font-weight="400" font-size="24" transform="translate(196.004 413)">req</text><text fill="#0D0D0D" font-family="Consolas,Consolas_MSFontService,sans-serif" font-weight="400" font-size="24" transform="translate(77.5042 442)">self.y</text><text fill="#0D0D0D" font-family="Consolas,Consolas_MSFontService,sans-serif" font-weight="400" font-size="24" transform="translate(169.671 442)">=</text><text fill="#5C2E4A" font-family="Consolas,Consolas_MSFontService,sans-serif" font-weight="400" font-size="24" transform="translate(196.004 442)">opt</text><text fill="#0D0D0D" font-family="Consolas,Consolas_MSFontService,sans-serif" font-weight="400" font-size="24" transform="translate(24.8375 499)">@fig.</text><text fill="#7B131D" font-family="Consolas,Consolas_MSFontService,sans-serif" font-weight="400" font-size="24" transform="translate(90.6708 499)">modifier</text><text fill="#0D0D0D" font-family="Consolas,Consolas_MSFontService,sans-serif" font-weight="400" font-size="24" transform="translate(196.004 499)">(‘</text><text fill="#579003" font-family="Consolas,Consolas_MSFontService,sans-serif" font-weight="400" font-size="24" transform="translate(222.337 499)">magic</text><text fill="#0D0D0D" font-family="Consolas,Consolas_MSFontService,sans-serif" font-weight="400" font-size="24" transform="translate(288.171 499)">’)</text><text fill="#0D0D0D" font-family="Consolas,Consolas_MSFontService,sans-serif" font-weight="400" font-size="24" transform="translate(24.8375 528)">class Magic(</text><text fill="#0D0D0D" font-family="Consolas,Consolas_MSFontService,sans-serif" font-weight="400" font-size="24" transform="translate(182.837 528)">fig.</text><text fill="#FF4A32" font-family="Consolas,Consolas_MSFontService,sans-serif" font-weight="400" font-size="24" transform="translate(235.504 528)">Configurable</text><text fill="#0D0D0D" font-family="Consolas,Consolas_MSFontService,sans-serif" font-weight="400" font-size="24" transform="translate(393.504 528)">):</text><text fill="#0D0D0D" font-family="Consolas,Consolas_MSFontService,sans-serif" font-weight="400" font-size="24" transform="translate(51.1708 557)">def __</text><text fill="#0D0D0D" font-family="Consolas,Consolas_MSFontService,sans-serif" font-weight="400" font-size="24" transform="translate(130.171 557)">init</text><text fill="#0D0D0D" font-family="Consolas,Consolas_MSFontService,sans-serif" font-weight="400" font-size="24" transform="translate(182.837 557)">__(self,</text><text fill="#5C2E4A" font-family="Consolas,Consolas_MSFontService,sans-serif" font-weight="400" font-size="24" transform="translate(301.337 557)">req</text><text fill="#0D0D0D" font-family="Consolas,Consolas_MSFontService,sans-serif" font-weight="400" font-size="24" transform="translate(340.837 557)">=‘new’):</text><text fill="#0D0D0D" font-family="Consolas,Consolas_MSFontService,sans-serif" font-weight="400" font-size="24" transform="translate(77.5042 586)">super().__</text><text fill="#0D0D0D" font-family="Consolas,Consolas_MSFontService,sans-serif" font-weight="400" font-size="24" transform="translate(209.171 586)">init</text><text fill="#0D0D0D" font-family="Consolas,Consolas_MSFontService,sans-serif" font-weight="400" font-size="24" transform="translate(261.837 586)">__(req=</text><text fill="#5C2E4A" font-family="Consolas,Consolas_MSFontService,sans-serif" font-weight="400" font-size="24" transform="translate(354.004 586)">req</text><text fill="#0D0D0D" font-family="Consolas,Consolas_MSFontService,sans-serif" font-weight="400" font-size="24" transform="translate(393.504 586)">)</text><path d="M474.5 557.487C474.5 551.971 478.971 547.5 484.487 547.5L908.513 547.5C914.029 547.5 918.5 551.971 918.5 557.487L918.5 695.513C918.5 701.029 914.029 705.5 908.513 705.5L484.487 705.5C478.971 705.5 474.5 701.029 474.5 695.513Z" stroke="#5C4357" stroke-width="1.33333" stroke-miterlimit="8" fill="#E6CDDC" fill-rule="evenodd"/><text fill="#0D0D0D" font-family="Consolas,Consolas_MSFontService,sans-serif" font-weight="400" font-size="24" transform="translate(482.048 574)">@fig.</text><text fill="#7B131D" font-family="Consolas,Consolas_MSFontService,sans-serif" font-weight="400" font-size="24" transform="translate(547.882 574)">component</text><text fill="#0D0D0D" font-family="Consolas,Consolas_MSFontService,sans-serif" font-weight="400" font-size="24" transform="translate(666.382 574)">(‘</text><text fill="#579003" font-family="Consolas,Consolas_MSFontService,sans-serif" font-weight="400" font-size="24" transform="translate(692.715 574)">ok</text><text fill="#0D0D0D" font-family="Consolas,Consolas_MSFontService,sans-serif" font-weight="400" font-size="24" transform="translate(719.048 574)">’)</text><text fill="#0D0D0D" font-family="Consolas,Consolas_MSFontService,sans-serif" font-weight="400" font-size="24" transform="translate(482.048 602)">class</text><text fill="#0D0D0D" font-family="Consolas,Consolas_MSFontService,sans-serif" font-weight="400" font-size="24" transform="translate(561.048 602)">Less_Cool</text><text fill="#0D0D0D" font-family="Consolas,Consolas_MSFontService,sans-serif" font-weight="400" font-size="24" transform="translate(679.548 602)">():</text><text fill="#0D0D0D" font-family="Consolas,Consolas_MSFontService,sans-serif" font-weight="400" font-size="24" transform="translate(508.382 631)">def __</text><text fill="#0D0D0D" font-family="Consolas,Consolas_MSFontService,sans-serif" font-weight="400" font-size="24" transform="translate(587.382 631)">init</text><text fill="#0D0D0D" font-family="Consolas,Consolas_MSFontService,sans-serif" font-weight="400" font-size="24" transform="translate(640.048 631)">__(self,</text><text fill="#0D0D0D" font-family="Consolas,Consolas_MSFontService,sans-serif" font-weight="400" font-size="24" transform="translate(758.548 631)">cfg</text><text fill="#0D0D0D" font-family="Consolas,Consolas_MSFontService,sans-serif" font-weight="400" font-size="24" transform="translate(798.048 631)">):</text><text fill="#0D0D0D" font-family="Consolas,Consolas_MSFontService,sans-serif" font-weight="400" font-size="24" transform="translate(534.715 660)">self.x</text><text fill="#0D0D0D" font-family="Consolas,Consolas_MSFontService,sans-serif" font-weight="400" font-size="24" transform="translate(626.882 660)">=</text><text fill="#0D0D0D" font-family="Consolas,Consolas_MSFontService,sans-serif" font-weight="400" font-size="24" transform="translate(653.215 660)">cfg.</text><text fill="#3B3838" font-family="Consolas,Consolas_MSFontService,sans-serif" font-weight="400" font-size="24" transform="translate(705.882 660)">pull</text><text fill="#0D0D0D" font-family="Consolas,Consolas_MSFontService,sans-serif" font-weight="400" font-size="24" transform="translate(758.548 660)">(‘</text><text fill="#5C2E4A" font-family="Consolas,Consolas_MSFontService,sans-serif" font-weight="400" font-size="24" transform="translate(784.882 660)">req</text><text fill="#0D0D0D" font-family="Consolas,Consolas_MSFontService,sans-serif" font-weight="400" font-size="24" transform="translate(824.382 660)">’)</text><text fill="#0D0D0D" font-family="Consolas,Consolas_MSFontService,sans-serif" font-weight="400" font-size="24" transform="translate(534.715 689)">self.y</text><text fill="#0D0D0D" font-family="Consolas,Consolas_MSFontService,sans-serif" font-weight="400" font-size="24" transform="translate(626.882 689)">=</text><text fill="#0D0D0D" font-family="Consolas,Consolas_MSFontService,sans-serif" font-weight="400" font-size="24" transform="translate(653.215 689)">cfg.</text><text fill="#3B3838" font-family="Consolas,Consolas_MSFontService,sans-serif" font-weight="400" font-size="24" transform="translate(705.882 689)">pull</text><text fill="#0D0D0D" font-family="Consolas,Consolas_MSFontService,sans-serif" font-weight="400" font-size="24" transform="translate(758.548 689)">(‘</text><text fill="#5C2E4A" font-family="Consolas,Consolas_MSFontService,sans-serif" font-weight="400" font-size="24" transform="translate(784.882 689)">opt</text><text fill="#0D0D0D" font-family="Consolas,Consolas_MSFontService,sans-serif" font-weight="400" font-size="24" transform="translate(824.382 689)">’, 10)</text><path d="M18.5001 175.834C18.5001 165.708 26.7084 157.5 36.8339 157.5L275.167 157.5 275.167 157.5 385.167 157.5 440.166 157.5C450.292 157.5 458.5 165.708 458.5 175.834L458.5 175.833 477.719 209.85 458.5 203.333 458.5 249.166C458.5 259.292 450.292 267.5 440.166 267.5L385.167 267.5 275.167 267.5 275.167 267.5 36.8339 267.5C26.7084 267.5 18.5001 259.292 18.5001 249.166L18.5001 203.333 18.5001 175.833 18.5001 175.833Z" stroke="#77101A" stroke-width="1.33333" stroke-miterlimit="8" fill="#A41A27" fill-rule="evenodd"/><text fill="#FFFFFF" font-family="Comfortaa,Comfortaa_MSFontService,sans-serif" font-weight="400" font-size="27" transform="translate(50.2295 189)">Use the specified names to</text><text fill="#FFFFFF" font-family="Comfortaa,Comfortaa_MSFontService,sans-serif" font-weight="400" font-size="27" transform="translate(34.0628 221)">refer to the functions/classes</text><text fill="#FFFFFF" font-family="Comfortaa,Comfortaa_MSFontService,sans-serif" font-weight="400" font-size="27" transform="translate(117.229 253)">(</text><text fill="#FFFFFF" font-family="Comfortaa,Comfortaa_MSFontService,sans-serif" font-weight="400" font-size="27" transform="translate(124.063 253)">e.g.</text><text fill="#FFFFFF" font-family="Comfortaa,Comfortaa_MSFontService,sans-serif" font-weight="400" font-size="27" transform="translate(177.896 253)">in the config)</text><path d="M541.5 451.667C541.5 442.186 549.186 434.5 558.667 434.5L772.5 434.5 772.5 434.5 871.5 434.5 920.333 434.5C929.814 434.5 937.5 442.186 937.5 451.667L937.5 494.584 937.5 494.584 937.5 520.334 937.5 520.333C937.5 529.814 929.814 537.5 920.333 537.5L871.5 537.5 745.753 589.096 772.5 537.5 558.667 537.5C549.186 537.5 541.5 529.814 541.5 520.333L541.5 520.334 541.5 494.584 541.5 494.584Z" stroke="#77101A" stroke-width="1.33333" stroke-miterlimit="8" fill="#A41A27" fill-rule="evenodd"/><text fill="#FFFFFF" font-family="Comfortaa,Comfortaa_MSFontService,sans-serif" font-weight="400" font-size="27" transform="translate(589.872 462)">Without</text><text fill="#FF4A32" font-family="Consolas,Consolas_MSFontService,sans-serif" font-weight="400" font-size="27" transform="translate(705.705 462)">Configurable</text><text fill="#FFFFFF" font-family="Comfortaa,Comfortaa_MSFontService,sans-serif" font-weight="400" font-size="27" transform="translate(881.705 462)">,</text><text fill="#FFFFFF" font-family="Consolas,Consolas_MSFontService,sans-serif" font-weight="400" font-size="27" transform="translate(572.538 494)">__</text><text fill="#FFFFFF" font-family="Consolas,Consolas_MSFontService,sans-serif" font-weight="400" font-size="27" transform="translate(601.872 494)">init</text><text fill="#FFFFFF" font-family="Consolas,Consolas_MSFontService,sans-serif" font-weight="400" font-size="27" transform="translate(660.538 494)">__</text><text fill="#FFFFFF" font-family="Comfortaa,Comfortaa_MSFontService,sans-serif" font-weight="400" font-size="27" transform="translate(697.705 494)">gets the config</text><text fill="#FFFFFF" font-family="Comfortaa,Comfortaa_MSFontService,sans-serif" font-weight="400" font-size="27" transform="translate(561.458 526)">object for greater control</text><path d="M511.5 367C511.5 360.649 516.649 355.5 523 355.5L577.5 355.5 577.5 355.5 676.5 355.5 896 355.5C902.351 355.5 907.5 360.649 907.5 367L907.5 395.75 907.5 395.75 907.5 413 907.5 413C907.5 419.351 902.351 424.5 896 424.5L676.5 424.5 577.5 424.5 577.5 424.5 523 424.5C516.649 424.5 511.5 419.351 511.5 413L511.5 413 458.646 393.076 511.5 395.75Z" stroke="#77101A" stroke-width="1.33333" stroke-miterlimit="8" fill="#A41A27" fill-rule="evenodd"/><text fill="#FFFFFF" font-family="Comfortaa,Comfortaa_MSFontService,sans-serif" font-weight="400" font-size="27" transform="translate(542.669 383)">Extract arguments from</text><text fill="#FFFFFF" font-family="Comfortaa,Comfortaa_MSFontService,sans-serif" font-weight="400" font-size="27" transform="translate(539.915 415)">the config automatically</text><path d="M293.5 265.667C293.5 262.261 296.261 259.5 299.667 259.5L435.333 259.5C438.739 259.5 441.5 262.261 441.5 265.667L441.5 290.333C441.5 293.739 438.739 296.5 435.333 296.5L299.667 296.5C296.261 296.5 293.5 293.739 293.5 290.333Z" stroke="#805E79" stroke-width="1.33333" stroke-miterlimit="8" fill="#E7DEE5" fill-rule="evenodd"/><text fill="#5C2E4A" font-family="Comfortaa,Comfortaa_MSFontService,sans-serif" font-weight="400" font-size="27" transform="translate(302.432 287)">see B3,B7</text><path d="M17.5001 619.167C17.5001 612.724 22.7236 607.5 29.1671 607.5L85.6667 607.5 221.44 593.187 187.917 607.5 414.833 607.5C421.277 607.5 426.5 612.724 426.5 619.167L426.5 619.167 426.5 619.167 426.5 636.667 426.5 665.833C426.5 672.276 421.277 677.5 414.833 677.5L187.917 677.5 85.6667 677.5 85.6667 677.5 29.1671 677.5C22.7236 677.5 17.5001 672.276 17.5001 665.833L17.5001 636.667 17.5001 619.167 17.5001 619.167Z" stroke="#77101A" stroke-width="1.33333" stroke-miterlimit="8" fill="#A41A27" fill-rule="evenodd"/><text fill="#FFFFFF" font-family="Comfortaa,Comfortaa_MSFontService,sans-serif" font-weight="400" font-size="27" transform="translate(48.4381 635)">Modifiers are like mix</text><text fill="#FFFFFF" font-family="Comfortaa,Comfortaa_MSFontService,sans-serif" font-weight="400" font-size="27" transform="translate(343.938 635)">-</text><text fill="#FFFFFF" font-family="Comfortaa,Comfortaa_MSFontService,sans-serif" font-weight="400" font-size="27" transform="translate(354.438 635)">ins</text><text fill="#FFFFFF" font-family="Comfortaa,Comfortaa_MSFontService,sans-serif" font-weight="400" font-size="27" transform="translate(34.6047 667)">for components at runtime</text><path d="M293.5 680.5C293.5 677.186 296.186 674.5 299.5 674.5L399.5 674.5C402.814 674.5 405.5 677.186 405.5 680.5L405.5 704.5C405.5 707.814 402.814 710.5 399.5 710.5L299.5 710.5C296.186 710.5 293.5 707.814 293.5 704.5Z" stroke="#805E79" stroke-width="1.33333" stroke-miterlimit="8" fill="#E7DEE5" fill-rule="evenodd"/><text fill="#5C2E4A" font-family="Comfortaa,Comfortaa_MSFontService,sans-serif" font-weight="400" font-size="27" transform="translate(303.93 702)">see B8</text><path d="M583.5 135.667C583.5 132.261 586.261 129.5 589.667 129.5L689.333 129.5C692.739 129.5 695.5 132.261 695.5 135.667L695.5 160.333C695.5 163.739 692.739 166.5 689.333 166.5L589.667 166.5C586.261 166.5 583.5 163.739 583.5 160.333Z" stroke="#805E79" stroke-width="1.33333" stroke-miterlimit="8" fill="#E7DEE5" fill-rule="evenodd"/><text fill="#5C2E4A" font-family="Comfortaa,Comfortaa_MSFontService,sans-serif" font-weight="400" font-size="27" transform="translate(597.673 157)">see B1</text><text fill="#0D0D0D" font-family="Comfortaa,Comfortaa_MSFontService,sans-serif" font-weight="400" font-size="13" transform="translate(12.1546 709)">GitHub:</text><text fill="#520D13" font-family="Comfortaa,Comfortaa_MSFontService,sans-serif" font-weight="700" font-size="13" transform="translate(67.988 709)">felixludos</text><text fill="#520D13" font-family="Comfortaa,Comfortaa_MSFontService,sans-serif" font-weight="700" font-size="13" transform="translate(134.488 709)">/omni</text><text fill="#520D13" font-family="Comfortaa,Comfortaa_MSFontService,sans-serif" font-weight="700" font-size="13" transform="translate(175.321 709)">-</text><text fill="#520D13" font-family="Comfortaa,Comfortaa_MSFontService,sans-serif" font-weight="700" font-size="13" transform="translate(180.488 709)">fig</text></g></svg>